<?xml version="1.0" encoding="utf-8"?>
<!-- Generator: Adobe Illustrator 25.4.1, SVG Export Plug-In . SVG Version: 6.00 Build 0)  -->
<svg version="1.1" id="Layer_1" xmlns="http://www.w3.org/2000/svg" xmlns:xlink="http://www.w3.org/1999/xlink" x="0px" y="0px"
	 viewBox="0 0 162.6 135.1" style="enable-background:new 0 0 162.6 135.1;" xml:space="preserve">
<style type="text/css">
	.st0{fill:#BFD3C1;}
	.st1{fill:#282F44;}
</style>
<path class="st0" d="M66.5,110.9c1.4,0,2.5,1.1,2.5,2.5c0,1.4-1.1,2.5-2.5,2.5H36.4c-1.4,0-2.5-1.1-2.5-2.5c0-7.2,0.4-12.7,1.8-17.1
	H22.4c-1.4,0-2.5-1.1-2.5-2.5c0-6.6,0.7-10.7,3.9-13.9c2.7-2.7,7.1-4.5,14.5-6.5c-2.5-1.8-4.4-5.1-5.2-8.8c-0.6-2.6-0.8-5.3-0.5-7.9
	c0.4-2.7,1.3-5.4,3-7.4c2.2-2.8,5.5-4.6,10.1-4.6s8,1.8,10.1,4.6c1.6,2.1,2.6,4.7,3,7.4c0.4,2.6,0.2,5.4-0.5,7.9
	c-0.9,3.7-2.7,7-5.2,8.8c2,0.5,3.8,1.1,5.4,1.6c1.8,0.6,3.4,1.2,4.8,1.9c2.3-0.7,4.7-1.4,7.4-2.1v-2.6c-5.2-2.9-9.2-9.5-11-17
	c-1.2-4.7-1.5-9.9-0.9-14.8c0.7-5,2.4-9.7,5.4-13.5c3.9-4.9,9.8-8.1,18.1-8.1s14.2,3.2,18.1,8.1c3,3.8,4.7,8.5,5.4,13.5
	c0.7,4.9,0.3,10-0.9,14.8c-1.8,7.5-5.8,14.1-11,17v2.6c2.6,0.7,5.1,1.4,7.4,2.1c1.4-0.7,2.9-1.3,4.8-1.9c1.6-0.5,3.4-1.1,5.4-1.6
	c-2.5-1.8-4.3-5.1-5.2-8.8c-0.6-2.6-0.8-5.3-0.5-7.9c0.4-2.7,1.3-5.4,3-7.4c2.2-2.8,5.5-4.6,10.1-4.6s8,1.8,10.1,4.6
	c1.6,2.1,2.6,4.7,3,7.4c0.3,2.6,0.2,5.4-0.5,7.9c-0.9,3.7-2.7,7-5.2,8.8c7.4,2,11.8,3.8,14.5,6.5c3.2,3.2,3.9,7.2,3.9,13.9
	c0,1.4-1.1,2.5-2.5,2.5h-13.4c1.4,4.5,1.8,10,1.8,17.1c0,1.4-1.1,2.5-2.5,2.5H98.3c-1.4,0-2.5-1.1-2.5-2.5c0-1.4,1.1-2.5,2.5-2.5
	h27.6c-0.1-6.9-0.7-11.8-2.6-15.6c-0.1-0.2-0.3-0.4-0.3-0.7c-0.7-1.2-1.5-2.3-2.5-3.3c-4.7-4.7-13.6-7.9-29.4-12.1
	c-1.1-0.2-2-1.2-2-2.4v-6.1c0-1,0.6-1.9,1.6-2.3c4.5-1.7,7.9-7.5,9.6-14.3c1-4.2,1.3-8.7,0.7-12.9c-0.5-4.1-1.9-8.1-4.3-11.1
	c-3-3.7-7.6-6.2-14.2-6.2s-11.2,2.4-14.2,6.2c-2.4,3-3.8,6.9-4.3,11.1c-0.6,4.3-0.3,8.8,0.7,12.9c1.6,6.7,5,12.4,9.4,14.2
	c1,0.3,1.7,1.3,1.7,2.4v6.1c0,1.1-0.7,2.1-1.9,2.4c-15.8,4.3-24.7,7.4-29.5,12.2c-1,1-1.8,2.1-2.5,3.3c-0.1,0.2-0.2,0.5-0.3,0.6
	c-1.9,3.8-2.5,8.8-2.6,15.7H66.5z M38.1,91.3c0.8-1.2,1.7-2.4,2.8-3.5c3.3-3.3,8.1-5.9,15.1-8.4c-1.8-0.6-3.8-1.2-6.2-1.8
	c-1.1-0.3-1.8-1.3-1.8-2.4v-3.1c0-1.1,0.7-2,1.7-2.4c1.8-0.8,3.3-3.3,4-6.3c0.5-2,0.6-4.1,0.4-6.1c-0.3-1.9-0.9-3.7-2-5
	c-1.3-1.6-3.3-2.7-6.2-2.7c-2.9,0-5,1-6.2,2.7c-1.1,1.4-1.7,3.1-2,5c-0.3,2-0.1,4.1,0.4,6.1c0.7,3.1,2.2,5.6,4.1,6.4
	c1,0.4,1.6,1.3,1.6,2.3v3.1c0,1.2-0.9,2.2-2,2.4c-7.7,2.1-12,3.6-14.3,5.8c-1.7,1.7-2.2,4.1-2.4,7.8H38.1z M108.9,79.4
	c6.9,2.5,11.7,5.1,15.1,8.4c1.1,1.1,2,2.2,2.8,3.5h13.1c-0.1-3.8-0.7-6.2-2.4-7.8c-2.2-2.2-6.5-3.7-14.3-5.8c-1.1-0.2-2-1.2-2-2.4
	v-3.1c0-1,0.6-2,1.6-2.3c1.8-0.7,3.3-3.3,4.1-6.4c0.5-2,0.6-4.1,0.4-6.1c-0.3-1.9-0.9-3.7-2-5c-1.3-1.6-3.3-2.7-6.2-2.7
	c-2.9,0-5,1-6.2,2.7c-1.1,1.4-1.7,3.1-2,5c-0.3,2-0.1,4.1,0.4,6.1c0.7,3,2.2,5.5,4,6.3c1,0.3,1.7,1.3,1.7,2.4v3.1
	c0,1.1-0.7,2.1-1.8,2.4C112.8,78.2,110.7,78.8,108.9,79.4z"/>
<path class="st1" d="M91.2,93.3H73.6c-1,0-1.8,0.8-1.8,1.8V108c0,1,0.8,1.8,1.8,1.8h17.6c1,0,1.8-0.8,1.8-1.8V95.1
	C93,94.1,92.2,93.3,91.2,93.3z M78.3,96.8c1.3,0,2.3,1.1,2.3,2.3s-1.1,2.3-2.3,2.3s-2.3-1.1-2.3-2.3S77,96.8,78.3,96.8z M82.4,105.5
	c0,0.4-0.4,0.7-0.8,0.7h-6.6c-0.5,0-0.8-0.3-0.8-0.7v-0.7c0-1.2,1.1-2.1,2.5-2.1h0.2c0.5,0.2,0.9,0.3,1.5,0.3s1-0.1,1.5-0.3H80
	c1.4,0,2.5,0.9,2.5,2.1V105.5z M90.6,103.6c0,0.2-0.1,0.3-0.3,0.3h-5.3c-0.2,0-0.3-0.1-0.3-0.3V103c0-0.2,0.1-0.3,0.3-0.3h5.3
	c0.2,0,0.3,0.1,0.3,0.3V103.6z M90.6,101.2c0,0.2-0.1,0.3-0.3,0.3h-5.3c-0.2,0-0.3-0.1-0.3-0.3v-0.6c0-0.2,0.1-0.3,0.3-0.3h5.3
	c0.2,0,0.3,0.1,0.3,0.3V101.2z M90.6,98.9c0,0.2-0.1,0.3-0.3,0.3h-5.3c-0.2,0-0.3-0.1-0.3-0.3v-0.6c0-0.2,0.1-0.3,0.3-0.3h5.3
	c0.2,0,0.3,0.1,0.3,0.3V98.9z"/>
</svg>
