<?xml version="1.0" encoding="utf-8"?>
<!-- Generator: Adobe Illustrator 25.4.1, SVG Export Plug-In . SVG Version: 6.00 Build 0)  -->
<svg version="1.1" id="Layer_1" xmlns="http://www.w3.org/2000/svg" xmlns:xlink="http://www.w3.org/1999/xlink" x="0px" y="0px"
	 viewBox="0 0 1073 767" style="enable-background:new 0 0 1073 767;" xml:space="preserve">
<style type="text/css">
	.st0{fill-opacity:0.349;}
	.st1{fill:#FFBE80;}
	.st2{fill:#FFFFFF;}
	.st3{fill:#46748B;}
	.st4{fill:#EE00FF;}
	.st5{fill-opacity:0.2353;}
	.st6{fill-opacity:0.1176;}
	.st7{fill:#FFFFFF;fill-opacity:0.3843;}
	.st8{fill-opacity:0.9961;}
	.st9{fill:#222B32;fill-opacity:0.9961;}
	.st10{fill:#44C5E5;fill-opacity:0.9961;}
	.st11{fill:#7D8B96;fill-opacity:0.9961;}
	.st12{fill:#000101;fill-opacity:0.9961;}
	.st13{fill:#71CFEB;}
	.st14{fill:#F7F297;}
	.st15{fill:#3C464F;fill-opacity:0.9961;}
	.st16{fill:#3B454E;}
	.st17{fill:#FF1300;}
	.st18{fill:#FF2C00;fill-opacity:0.9961;}
	.st19{fill:#000509;fill-opacity:0.9961;}
</style>
<g>
	<path class="st0" d="M984.7,664.9l-4,4.6c-19,9.2-74.5,16.6-166.6,22.1c-92.7,5.5-202,7.7-327.6,6.7
		c-119.9-1.5-215.9-5.7-287.8-12.8c-23-2.3-42-4.8-56.9-7.5l-18.8-4.2c-10.3-2.9-15.6-5.8-15.7-8.9c3.1-9.5,46-17.5,128.5-23.8
		c82.5-6.3,185.9-9.6,310.2-9.9c124.3,0.2,227.7,3.5,310.2,9.9S981.6,655.4,984.7,664.9"/>
</g>
<g>
	<path d="M248.2,254.9c-6.2-2-12.5-2-19,0c-6,1.9-10.4,5.3-13.4,10.2c-3.4,5.4-4.9,14.7-4.7,27.9l9.1,8.9l43.3-15.5
		c2.5-6.9,2.4-12.9-0.4-18C259.6,261.7,254.6,257.2,248.2,254.9"/>
</g>
<g>
	<path d="M362.8,641.2l-5.6,18.4c-3.7,3.5-5.7,6.4-6.2,9c-0.7,3.9,0.7,8.3,4.2,13.1c2.7,3.5,5.7,5.7,9,6.7c1.1,0.3,2.4,0.6,4,0.7
		c9.3,0.1,14.7,0.5,16.1,1c1,0,6.5,1.9,16.7,5.7c1.8,0.6,3.6,1.1,5.3,1.4c7.3,1.5,14.6-0.6,21.7-6.4c6.9-6.2,8.5-11.9,5.1-17.1
		c-1.1-1.4-2.4-2.4-4.1-3.1c-0.9-0.4-1.8-0.7-2.6-0.9c-4.8-1-7.7-1.6-8.7-2c-2.2-0.7-3.9-1.6-5.1-2.7c-3.3-2.7-5.9-7.9-8-15.4
		l-41.7-8.6"/>
</g>
<g>
	<path d="M404.3,644.8C403.9,645.4,403.9,645.4,404.3,644.8 M404,645.3l-9.1,13.4c-2.5-1.5-4.1-1.8-4.6-0.8
		c-0.7,0.7-0.6,3.1,0.2,7.2l4.4-6.4l0.1,0c1.4,0.9,3.5,2.5,6.1,4.8c11.8,10.5,18,15.9,18.5,16.2c2.9,2.4,5.2,4,7,4.9
		c2.8,1.5,5.2,1.4,7.1-0.4c5.3-5.6,8.7-9.3,10-11.1c1.9-2.5,3.1-4.5,3.5-6.1c0.9-2.7-0.8-5.1-5-7.2c-1.8-0.9-4.7-2.1-8.6-3.4
		c-1.5-0.6-8.2-2.7-20.2-6.6c-2.2-0.7-3.9-1.3-5-1.8C405.1,646.9,403.7,646,404,645.3"/>
</g>
<g>
	<path d="M276.1,554.1l-10.5,3.5l-0.4,9.7l0,0l11.5,0.3L276.1,554.1"/>
</g>
<g>
	<path d="M359.5,630l-191.3,14.6l1.8,31.9l117.7,7.4l69.7-21.2L359.5,630"/>
</g>
<g>
	<path d="M263.3,622.1l-60.8,5.8l-34.9,17l121.3,8l84.9-19l-53.3-9.3L263.3,622.1"/>
</g>
<g>
	<path d="M178,464.3c-4.9,32.4-3.5,53.9,4,64.3c2.9,4.2,7.5,7.5,13.6,9.9c3.1,1.5,12.2,3.5,27.2,5.9c2.2,0.5,4.2,1.2,5.9,2
		c2,0.6,6.3,3.8,12.7,9.6c1.5,1.1,2.9,1.8,4.2,2.3c4.2,1.9,12.1,2.2,23.5,1c39.5-5.7,77.9-10.7,115-15l-206.1-80"/>
</g>
<g>
	<path class="st1" d="M307.2,411.8l-24.5,7.9c6.9,23.9,12.7,38.8,17.1,44.7c4,5.9,8.5,7.7,13.5,5.6c5.5-2.8,9-8.3,10.4-16.2
		C325.3,443.4,319.8,429.5,307.2,411.8"/>
</g>
<g>
	<path class="st2" d="M203.1,333.6l-1.7,7.3l-33.7,18.8c-8.4,18.5-12.3,32.6-11.7,42.3c0,4.4,0.5,10.6,1.7,18.7l42.6-2.5
		c-5.2,32.2-7.4,53.5-6.7,63.7c0.3,13.7,3.6,26.2,9.8,37.5l97.3-56.5l-9.6-43.8l20.1-5c-5-19.2-11.5-35.7-19.3-49.6L255.7,347
		l-1-8.8l-51.4-4.5"/>
</g>
<g>
	<path class="st3" d="M372.9,542.3L379,600l-25.8-57.6l19.2-0.1 M280.8,463.1c-22.8-0.1-41.4,5.6-55.7,17
		c-17.6,13.8-24.7,27.9-21.2,42.4c22.9,4.2,38,7.6,45.3,10.4c6,1,20.3,6.6,42.7,16.8c3,1,7.3,1.8,12.9,2.2c3.1,11.5,6,19.6,8.7,24.3
		c20.9,27.5,32.2,43.7,33.7,48.4c2.3,3.9,5.8,13.7,10.4,29.3l56.5-3.7c6.7-77.5,10.4-119,11.1-124.4c0.7-6.2,0-12.1-2.2-17.8
		c-10.6-24.7-57.9-39.6-141.8-44.8L280.8,463.1z"/>
</g>
<g>
	<path class="st1" d="M202.3,412.7l-42.9,6.4c1.7,12,4,21.7,6.7,29.1c2.3,6.6,6.8,15.1,13.5,25.3l28.8,6.5c4.2,0.9,6.5,1.3,7,1.2
		c3.8-0.5,7-0.8,9.7-1l33.4-1.3c6.6-0.3,11.7-0.7,15.3-1.2c8.1-1,12.2-2.7,12.1-5.2c5,4.9,9.7,7.2,14.1,6.9c3.5-0.4,6.9-2.4,10-6.1
		c2.8-3.6,3.9-7,3.3-10.2c-1.9-5.6-8.5-8.9-19.9-10c-3.5-0.3-7.3,0-11.3,0.7c-1.7,0.2-7.2,1.7-16.4,4.4c-2,0.5-3.6,0.8-5,1
		c-3.7,0.5-7.6,0.4-11.9-0.4c-6.2-0.8-21-6-44.3-15.6c2.3-6.3,1.6-16.4-2.1-30.3"/>
</g>
<g>
	<path d="M435.8,405l-90.6,2.3l-41.4,70.1l-59.1-1.2l0,6.3l56.3,10.2l89.7-5.1l3.5-10.7L435.8,405"/>
</g>
<g>
	<path class="st1" d="M272.2,475.7c-0.6-0.7-4.3-1.5-11-2.4c-8-1-13.2-1.3-15.7-1c-1,0.1-1.8,0.4-2.4,0.8l-1.3,6.3
		c2.5-0.1,6.6-0.4,12.2-0.8c4.6-0.4,8.3-0.7,11.1-1.1C270.2,477,272.6,476.4,272.2,475.7"/>
</g>
<g>
	<path d="M278.3,565.2l-14.6,0.2l0.2,69l17.1-0.4L278.3,565.2"/>
</g>
<g>
	<path d="M358,652.9c-2.1,3.2-3.6,5.8-4.4,7.6c-0.9,1.8-1.8,4.6-2.7,8.2l9.6-3l1.4-11.4L358,652.9"/>
</g>
<g>
	<path class="st4" d="M197.6,506.3l6.4,16.6c-0.4-3.3-0.7-5.5-0.9-6.6L197.6,506.3"/>
</g>
<g>
	<path class="st1" d="M232.9,271.4c-4.4,0.1-7.2,1.3-8.3,3.6c-0.3,0.7-0.5,1.7-0.6,2.8c-0.1,0.4,0.1,2.4,0.4,5.8
		c0,0.8-0.1,1.4-0.2,1.7c-0.2,0.5-0.4,0.9-0.9,1.3l-2.7,1.8c-0.4,0.4-0.6,1-0.8,1.7c-0.1,0.8-0.1,1.6-0.1,2.6l0.6,4.8l-3,0.6
		c0.4-2.5-1.4-5.2-5.5-8.1c-1.8-1-2.9-0.7-3.4,0.8c-0.7,3.2-0.2,7.7,1.5,13.5c0.5,1.6,1.1,2.8,1.8,3.7c0.3,0.6,1.4,1.4,3.1,2.5
		c0.3,0.2,0.5,0.5,0.7,0.9c0.5,0.9,0.8,2.3,0.9,4c0.5,6.7-1,13.3-4.4,19.9l21,7.6l12.1,19.3l4.9-17.1l1.2-12.3
		c4.5-4.6,8.3-12.2,11.5-22.8c0.3-1.3,0.5-2.7,0.6-4.1l0.2-8.6l0.7-10.4c0.1-2.9,0.1-5.2-0.1-6.9c-0.3-3.3-1.7-5.2-4-5.7
		c-0.7-0.2-1.5-0.3-2.6-0.3c-5.1,0.3-8.1,0.3-9,0.1c-0.8,0-4.5-0.7-11.2-2.2C235.6,271.5,234.2,271.4,232.9,271.4"/>
</g>
<g>
	<path class="st5" d="M222.3,325.1C223,325.9,223,325.9,222.3,325.1 M222.9,325.8l13.3,16l13.5-8.4c-5.1,2.6-9.6,3.3-13.6,2.2
		C232.1,334.4,227.8,331.2,222.9,325.8"/>
</g>
<g>
	<path class="st6" d="M199.1,378.1l3.2,31.7c0.4-3.1,0.7-5.6,0.8-7.5c0.1-2.1,0-4.2-0.2-6.4C202.4,391.6,201.2,385.7,199.1,378.1
		L199.1,378.1z M294.4,388.5l-1.5,28.7c1.2-3,2-5.4,2.4-7.1c0.5-2,0.8-4,0.9-5.9C296.4,400.4,295.8,395.1,294.4,388.5L294.4,388.5z
		 M260.1,447.8c-6.6,0-14.8,0.6-24.5,1.9l51.7,1.1l0,0c-6.2-1.1-11-1.8-14.5-2.2c-3.9-0.5-7.7-0.7-11.3-0.8
		C261,447.8,260.6,447.8,260.1,447.8z M392.3,512L375,536.4c5-4,8.6-7.5,10.6-10.5C387.9,522.6,390.2,518,392.3,512L392.3,512z
		 M307.2,528l-6.4,11.8c1.7-0.6,2.9-1.1,3.6-1.6c0.8-0.5,1.5-1.2,1.9-2C307.2,534.6,307.5,531.9,307.2,528L307.2,528z M324.4,493.5
		c4.5,2,7.8,3.9,9.9,5.8c2.6,2.1,4.9,4.8,6.6,8.1c3.3,5.5,6.7,17.5,10.4,36.1l-2.5-39.2L324.4,493.5L324.4,493.5z M311.9,536.8
		l-7.2,10.8l5.8-3L311.9,536.8L311.9,536.8z M379.8,600.3l11.4,52.2c0.3-7,0.3-12.3,0.1-15.9c-0.2-4.2-0.7-8-1.5-11.6
		C388.3,618,385,609.8,379.8,600.3L379.8,600.3z M395.8,652.1c11.4,6.7,19.8,11.9,25.2,15.6c4.8,3.3,8.2,6.1,10.2,8.5l-7.5-10.9l0,0
		L395.8,652.1L395.8,652.1z M431.2,676.2l2.4,3.5C432.8,678.3,432,677.2,431.2,676.2L431.2,676.2z"/>
</g>
<g>
	<path class="st7" d="M431.4,688.7c1.3-2.7,0.2-5.5-3.1-8.5c-3.5-2.9-8-5-13.7-6.1c-6.4-1.2-12.9-1.3-19.7-0.4
		c-2.6,0.4-4.8,0.9-6.5,1.5c-1.3,0.5-2.7,1.5-4.4,3c-0.4,0.2-0.8,0.3-1.4,0.3c-0.7,0-1.8-0.2-3.2-0.5l-11.6-3.5
		c-2.1-0.6-3.9-1-5.2-1.2c-4.3-0.7-8.1-0.8-11.4-0.2l0.7,3.2c1.3,2.4,2.5,4.2,3.5,5.5c1.9,2.6,4.2,4.5,6.9,5.8
		c0.8,0.4,1.6,0.6,2.5,0.8c6,0.4,11.1,1.1,15,2c2,0.4,3.9,0.9,5.9,1.5l11.4,3.6c1.9,0.5,3.7,1,5.4,1.3c5.6,1.1,11.2,0.9,16.6-0.6
		C425.5,694.5,429.5,692,431.4,688.7"/>
</g>
<g>
	<path class="st8" d="M733.2,275.1l93.7,0l93.7,0l0,401.2c-62.4,0-124.9,0-187.3,0C733.2,542.5,733.2,408.8,733.2,275.1"/>
</g>
<g>
	<path class="st9" d="M743.8,294.5l83.1,0l83.1,0c0,16.3,0,32.5,0,48.8c-55.4,0-110.8,0-166.3,0C743.8,327,743.8,310.8,743.8,294.5"
		/>
</g>
<g>
	<path class="st9" d="M758,484l29.2,0l29.2,0c0,60.7,0,121.4,0,182.1c-19.5,0-39,0-58.5,0C758,605.4,758,544.7,758,484"/>
</g>
<g>
	<path class="st9" d="M837.3,484.5l58.5,0l0,182.1l-58.5,0L837.3,484.5"/>
</g>
<g>
	<path class="st9" d="M743.8,358l166.3,0v48.8l-166.3,0V358"/>
</g>
<g>
	<path class="st9" d="M743.8,420.4l83.1,0l83.1,0c0,16.3,0,32.5,0,48.8c-55.4,0-110.8,0-166.3,0
		C743.8,452.9,743.8,436.7,743.8,420.4"/>
</g>
<g>
	<path class="st10" d="M846.4,492.3l18.2,0l18.2,0c0,6,0,12,0,18c-12.1,0-24.3,0-36.4,0C846.4,504.3,846.4,498.3,846.4,492.3"/>
</g>
<g>
	<path class="st10" d="M768.2,492l36.4,0v18l-36.4,0V492"/>
</g>
<g>
	<path class="st11" d="M492.5,597.4l107.3,0l107.3,0c0,25.8,0,51.6,0,77.4c-71.5,0-143.1,0-214.6,0
		C492.5,649,492.5,623.2,492.5,597.4"/>
</g>
<g>
	<path class="st12" d="M498.8,602.1l100.2,0l100.2,0c0,22.1,0,44.2,0,66.4c-66.8,0-133.6,0-200.5,0
		C498.8,646.3,498.8,624.2,498.8,602.1"/>
</g>
<g>
	<path class="st13" d="M576.7,619l0.1,4.8l0.1,4.8c-2.8,0-5.7,0.1-8.5,0.1c0-3.2-0.1-6.4-0.1-9.6C571,619.1,573.9,619.1,576.7,619"
		/>
</g>
<g>
	<path class="st13" d="M564.3,619.2l0.1,9.6l-8.5,0.1l-0.1-9.6L564.3,619.2"/>
</g>
<g>
	<path class="st13" d="M576.7,630.3l0.1,4.8l0.1,4.8c-2.8,0-5.7,0.1-8.5,0.1c0-3.2-0.1-6.4-0.1-9.6
		C571,630.4,573.9,630.3,576.7,630.3"/>
</g>
<g>
	<path class="st13" d="M564.3,630.5l0.1,9.6l-8.5,0.1l-0.1-9.6L564.3,630.5"/>
</g>
<g>
	<path class="st13" d="M551.9,630.7l0.1,4.8l0.1,4.8c-2.8,0-5.7,0.1-8.5,0.1c0-3.2-0.1-6.4-0.1-9.6
		C546.2,630.7,549,630.7,551.9,630.7"/>
</g>
<g>
	<path class="st14" d="M621.7,618.5l0.1,4.8l0.1,4.8c-2.8,0-5.7,0.1-8.5,0.1c0-3.2-0.1-6.4-0.1-9.6
		C616,618.6,618.9,618.5,621.7,618.5"/>
</g>
<g>
	<path class="st14" d="M609.3,618.6l0.1,9.6l-8.5,0.1l-0.1-9.6L609.3,618.6"/>
</g>
<g>
	<path class="st14" d="M596.8,618.8l0.1,4.8l0.1,4.8c-2.8,0-5.7,0.1-8.5,0.1c0-3.2-0.1-6.4-0.1-9.6
		C591.2,618.9,594,618.9,596.8,618.8"/>
</g>
<g>
	<path class="st14" d="M621.7,629.7l0.1,4.8l0.1,4.8c-2.8,0-5.7,0.1-8.5,0.1c0-3.2-0.1-6.4-0.1-9.6
		C616,629.8,618.9,629.8,621.7,629.7"/>
</g>
<g>
	<path class="st14" d="M609.3,629.9l0.1,9.6l-8.5,0.1l-0.1-9.6L609.3,629.9"/>
</g>
<g>
	<path class="st14" d="M596.8,630.1l0.1,4.8l0.1,4.8c-2.8,0-5.7,0.1-8.5,0.1c0-3.2-0.1-6.4-0.1-9.6
		C591.2,630.2,594,630.1,596.8,630.1"/>
</g>
<g>
	<path class="st15" d="M539.8,651.2l56.4,0l56.4,0c0,2,0,4,0,6c-37.6,0-75.2,0-112.7,0C539.8,655.1,539.8,653.2,539.8,651.2"/>
</g>
<g>
	<path class="st11" d="M491,516.8l107.3,0l107.3,0c0,25.8,0,51.6,0,77.4c-71.5,0-143.1,0-214.6,0C491,568.4,491,542.6,491,516.8"/>
</g>
<g>
	<path class="st12" d="M497.3,521.5l100.2,0l100.2,0c0,22.1,0,44.2,0,66.4c-66.8,0-133.6,0-200.5,0
		C497.3,565.7,497.3,543.6,497.3,521.5"/>
</g>
<g>
	<path class="st14" d="M503.1,526.9l4.8-0.1l4.8-0.1c0,2.8,0.1,5.7,0.1,8.5c-3.2,0-6.4,0.1-9.6,0.1
		C503.2,532.5,503.2,529.7,503.1,526.9"/>
</g>
<g>
	<path class="st16" d="M503.3,539.3l9.6-0.1l0.1,8.5l-9.6,0.1L503.3,539.3"/>
</g>
<g>
	<path class="st16" d="M503.5,551.7l4.8-0.1l4.8-0.1c0,2.8,0.1,5.7,0.1,8.5c-3.2,0-6.4,0.1-9.6,0.1
		C503.6,557.4,503.5,554.6,503.5,551.7"/>
</g>
<g>
	<path class="st16" d="M515.3,526.9l4.8-0.1l4.8-0.1c0,2.8,0.1,5.7,0.1,8.5c-3.2,0-6.4,0.1-9.6,0.1
		C515.4,532.5,515.3,529.7,515.3,526.9"/>
</g>
<g>
	<path class="st16" d="M515.5,539.3l9.6-0.1l0.1,8.5l-9.6,0.1L515.5,539.3"/>
</g>
<g>
	<path class="st16" d="M515.6,551.7l4.8-0.1l4.8-0.1c0,2.8,0.1,5.7,0.1,8.5c-3.2,0-6.4,0.1-9.6,0.1
		C515.7,557.4,515.7,554.6,515.6,551.7"/>
</g>
<g>
	<path class="st14" d="M527.4,526.9l4.8-0.1l4.8-0.1c0,2.8,0.1,5.7,0.1,8.5c-3.2,0-6.4,0.1-9.6,0.1
		C527.5,532.5,527.5,529.7,527.4,526.9"/>
</g>
<g>
	<path class="st16" d="M527.6,539.3l9.6-0.1l0.1,8.5l-9.6,0.1L527.6,539.3"/>
</g>
<g>
	<path class="st16" d="M527.8,551.7l4.8-0.1l4.8-0.1c0,2.8,0.1,5.7,0.1,8.5c-3.2,0-6.4,0.1-9.6,0.1
		C527.9,557.4,527.8,554.6,527.8,551.7"/>
</g>
<g>
	<path class="st17" d="M575.2,538.5l0.1,4.8l0.1,4.8c-2.8,0-5.7,0.1-8.5,0.1c0-3.2-0.1-6.4-0.1-9.6
		C569.5,538.6,572.4,538.5,575.2,538.5"/>
</g>
<g>
	<path class="st13" d="M562.8,538.6l0.1,9.6l-8.5,0.1l-0.1-9.6L562.8,538.6"/>
</g>
<g>
	<path class="st13" d="M550.4,538.8l0.1,4.8l0.1,4.8c-2.8,0-5.7,0.1-8.5,0.1c0-3.2-0.1-6.4-0.1-9.6
		C544.7,538.9,547.5,538.9,550.4,538.8"/>
</g>
<g>
	<path class="st17" d="M575.2,549.7l0.1,4.8l0.1,4.8c-2.8,0-5.7,0.1-8.5,0.1c0-3.2-0.1-6.4-0.1-9.6
		C569.5,549.8,572.4,549.8,575.2,549.7"/>
</g>
<g>
	<path class="st13" d="M562.8,549.9l0.1,9.6l-8.5,0.1l-0.1-9.6L562.8,549.9"/>
</g>
<g>
	<path class="st13" d="M550.4,550.1l0.1,4.8l0.1,4.8c-2.8,0-5.7,0.1-8.5,0.1c0-3.2-0.1-6.4-0.1-9.6
		C544.7,550.2,547.5,550.1,550.4,550.1"/>
</g>
<g>
	<path class="st14" d="M620.2,537.9l0.1,4.8l0.1,4.8c-2.8,0-5.7,0.1-8.5,0.1c0-3.2-0.1-6.4-0.1-9.6
		C614.5,538,617.3,537.9,620.2,537.9"/>
</g>
<g>
	<path class="st14" d="M607.7,538.1l0.1,9.6l-8.5,0.1l-0.1-9.6L607.7,538.1"/>
</g>
<g>
	<path class="st14" d="M595.3,538.3l0.1,4.8l0.1,4.8c-2.8,0-5.7,0.1-8.5,0.1c0-3.2-0.1-6.4-0.1-9.6
		C589.7,538.3,592.5,538.3,595.3,538.3"/>
</g>
<g>
	<path class="st14" d="M620.2,549.2l0.1,4.8l0.1,4.8c-2.8,0-5.7,0.1-8.5,0.1c0-3.2-0.1-6.4-0.1-9.6
		C614.5,549.2,617.3,549.2,620.2,549.2"/>
</g>
<g>
	<path class="st14" d="M607.7,549.3l0.1,9.6l-8.5,0.1l-0.1-9.6L607.7,549.3"/>
</g>
<g>
	<path class="st14" d="M595.3,549.5l0.1,4.8l0.1,4.8c-2.8,0-5.7,0.1-8.5,0.1c0-3.2-0.1-6.4-0.1-9.6
		C589.7,549.6,592.5,549.6,595.3,549.5"/>
</g>
<g>
	<path class="st15" d="M538.2,570.6l56.4,0l56.4,0c0,2,0,4,0,6c-37.6,0-75.2,0-112.7,0C538.2,574.6,538.2,572.6,538.2,570.6"/>
</g>
<g>
	<path class="st11" d="M491.3,436.7l107.3,0l107.3,0c0,25.8,0,51.6,0,77.4c-71.5,0-143.1,0-214.6,0
		C491.3,488.3,491.3,462.5,491.3,436.7"/>
</g>
<g>
	<path class="st12" d="M497.6,441.4l100.2,0l100.2,0c0,22.1,0,44.2,0,66.4c-66.8,0-133.6,0-200.5,0
		C497.6,485.7,497.6,463.6,497.6,441.4"/>
</g>
<g>
	<path class="st18" d="M503.4,446.8l4.8-0.1l4.8-0.1c0,2.8,0.1,5.7,0.1,8.5c-3.2,0-6.4,0.1-9.6,0.1
		C503.5,452.5,503.5,449.6,503.4,446.8"/>
</g>
<g>
	<path class="st18" d="M503.6,459.2l9.6-0.1l0.1,8.5l-9.6,0.1L503.6,459.2"/>
</g>
<g>
	<path class="st18" d="M503.8,471.7l4.8-0.1l4.8-0.1c0,2.8,0.1,5.7,0.1,8.5c-3.2,0-6.4,0.1-9.6,0.1
		C503.9,477.3,503.8,474.5,503.8,471.7"/>
</g>
<g>
	<path class="st18" d="M515.6,446.8l4.8-0.1l4.8-0.1c0,2.8,0.1,5.7,0.1,8.5c-3.2,0-6.4,0.1-9.6,0.1
		C515.7,452.5,515.6,449.6,515.6,446.8"/>
</g>
<g>
	<path class="st18" d="M515.8,459.2l9.6-0.1l0.1,8.5l-9.6,0.1L515.8,459.2"/>
</g>
<g>
	<path class="st18" d="M515.9,471.7l4.8-0.1l4.8-0.1c0,2.8,0.1,5.7,0.1,8.5c-3.2,0-6.4,0.1-9.6,0.1C516,477.3,516,474.5,515.9,471.7
		"/>
</g>
<g>
	<path class="st18" d="M527.7,446.8l4.8-0.1l4.8-0.1c0,2.8,0.1,5.7,0.1,8.5c-3.2,0-6.4,0.1-9.6,0.1
		C527.8,452.5,527.8,449.6,527.7,446.8"/>
</g>
<g>
	<path class="st18" d="M527.9,459.2l9.6-0.1l0.1,8.5l-9.6,0.1L527.9,459.2"/>
</g>
<g>
	<path class="st18" d="M528.1,471.7l4.8-0.1l4.8-0.1c0,2.8,0.1,5.7,0.1,8.5c-3.2,0-6.4,0.1-9.6,0.1
		C528.2,477.3,528.1,474.5,528.1,471.7"/>
</g>
<g>
	<path class="st13" d="M575.5,458.4l0.1,4.8l0.1,4.8c-2.8,0-5.7,0.1-8.5,0.1c0-3.2-0.1-6.4-0.1-9.6
		C569.8,458.5,572.7,458.4,575.5,458.4"/>
</g>
<g>
	<path class="st13" d="M563.1,458.6l0.1,9.6l-8.5,0.1l-0.1-9.6L563.1,458.6"/>
</g>
<g>
	<path class="st13" d="M550.7,458.8l0.1,4.8l0.1,4.8c-2.8,0-5.7,0.1-8.5,0.1c0-3.2-0.1-6.4-0.1-9.6
		C545,458.8,547.8,458.8,550.7,458.8"/>
</g>
<g>
	<path class="st13" d="M575.5,469.7l0.1,4.8l0.1,4.8c-2.8,0-5.7,0.1-8.5,0.1c0-3.2-0.1-6.4-0.1-9.6
		C569.8,469.7,572.7,469.7,575.5,469.7"/>
</g>
<g>
	<path class="st13" d="M563.1,469.8l0.1,9.6l-8.5,0.1l-0.1-9.6L563.1,469.8"/>
</g>
<g>
	<path class="st13" d="M550.7,470l0.1,4.8l0.1,4.8c-2.8,0-5.7,0.1-8.5,0.1c0-3.2-0.1-6.4-0.1-9.6C545,470.1,547.8,470.1,550.7,470"
		/>
</g>
<g>
	<path class="st14" d="M620.5,457.8l0.1,4.8l0.1,4.8c-2.8,0-5.7,0.1-8.5,0.1c0-3.2-0.1-6.4-0.1-9.6
		C614.8,457.9,617.6,457.9,620.5,457.8"/>
</g>
<g>
	<path class="st14" d="M608.1,458l0.1,9.6l-8.5,0.1l-0.1-9.6L608.1,458"/>
</g>
<g>
	<path class="st14" d="M595.6,458.2l0.1,4.8l0.1,4.8c-2.8,0-5.7,0.1-8.5,0.1c0-3.2-0.1-6.4-0.1-9.6
		C590,458.3,592.8,458.2,595.6,458.2"/>
</g>
<g>
	<path class="st14" d="M620.5,469.1l0.1,4.8l0.1,4.8c-2.8,0-5.7,0.1-8.5,0.1c0-3.2-0.1-6.4-0.1-9.6
		C614.8,469.2,617.6,469.1,620.5,469.1"/>
</g>
<g>
	<path class="st14" d="M608.1,469.3l0.1,9.6l-8.5,0.1l-0.1-9.6L608.1,469.3"/>
</g>
<g>
	<path class="st14" d="M595.6,469.5l0.1,4.8l0.1,4.8c-2.8,0-5.7,0.1-8.5,0.1c0-3.2-0.1-6.4-0.1-9.6
		C590,469.5,592.8,469.5,595.6,469.5"/>
</g>
<g>
	<path class="st15" d="M538.6,490.5l56.4,0l56.4,0c0,2,0,4,0,6c-37.6,0-75.2,0-112.7,0C538.6,494.5,538.6,492.5,538.6,490.5"/>
</g>
<g>
	<path class="st11" d="M489.8,356.2l107.3,0l107.3,0c0,25.8,0,51.6,0,77.4c-71.5,0-143.1,0-214.6,0
		C489.8,407.8,489.8,382,489.8,356.2"/>
</g>
<g>
	<path class="st12" d="M496.1,360.9l100.2,0l100.2,0c0,22.1,0,44.2,0,66.4c-66.8,0-133.6,0-200.5,0
		C496.1,405.1,496.1,383,496.1,360.9"/>
</g>
<g>
	<path class="st16" d="M502.1,378.7l9.6-0.1l0.1,8.5l-9.6,0.1L502.1,378.7"/>
</g>
<g>
	<path class="st16" d="M502.3,391.1l4.8-0.1l4.8-0.1c0,2.8,0.1,5.7,0.1,8.5c-3.2,0-6.4,0.1-9.6,0.1
		C502.4,396.7,502.3,393.9,502.3,391.1"/>
</g>
<g>
	<path class="st16" d="M514.2,378.7l9.6-0.1l0.1,8.5l-9.6,0.1L514.2,378.7"/>
</g>
<g>
	<path class="st16" d="M514.4,391.1l4.8-0.1l4.8-0.1c0,2.8,0.1,5.7,0.1,8.5c-3.2,0-6.4,0.1-9.6,0.1
		C514.5,396.7,514.5,393.9,514.4,391.1"/>
</g>
<g>
	<path class="st16" d="M526.6,391.1l4.8-0.1l4.8-0.1c0,2.8,0.1,5.7,0.1,8.5c-3.2,0-6.4,0.1-9.6,0.1
		C526.7,396.7,526.6,393.9,526.6,391.1"/>
</g>
<g>
	<path class="st17" d="M574,377.8l0.1,4.8l0.1,4.8c-2.8,0-5.7,0.1-8.5,0.1c0-3.2-0.1-6.4-0.1-9.6C568.3,377.9,571.2,377.9,574,377.8
		"/>
</g>
<g>
	<path class="st13" d="M561.6,378l0.1,9.6l-8.5,0.1l-0.1-9.6L561.6,378"/>
</g>
<g>
	<path class="st13" d="M549.1,378.2l0.1,4.8l0.1,4.8c-2.8,0-5.7,0.1-8.5,0.1c0-3.2-0.1-6.4-0.1-9.6
		C543.5,378.3,546.3,378.2,549.1,378.2"/>
</g>
<g>
	<path class="st17" d="M574,389.1l0.1,4.8l0.1,4.8c-2.8,0-5.7,0.1-8.5,0.1c0-3.2-0.1-6.4-0.1-9.6C568.3,389.2,571.2,389.1,574,389.1
		"/>
</g>
<g>
	<path class="st13" d="M561.6,389.3l0.1,9.6l-8.5,0.1l-0.1-9.6L561.6,389.3"/>
</g>
<g>
	<path class="st13" d="M549.1,389.5l0.1,4.8l0.1,4.8c-2.8,0-5.7,0.1-8.5,0.1c0-3.2-0.1-6.4-0.1-9.6
		C543.5,389.5,546.3,389.5,549.1,389.5"/>
</g>
<g>
	<path class="st14" d="M619,377.3l0.1,4.8l0.1,4.8c-2.8,0-5.7,0.1-8.5,0.1c0-3.2-0.1-6.4-0.1-9.6C613.3,377.4,616.1,377.3,619,377.3
		"/>
</g>
<g>
	<path class="st14" d="M606.5,377.5l0.1,9.6l-8.5,0.1l-0.1-9.6L606.5,377.5"/>
</g>
<g>
	<path class="st14" d="M594.1,377.6l0.1,4.8l0.1,4.8c-2.8,0-5.7,0.1-8.5,0.1c0-3.2-0.1-6.4-0.1-9.6
		C588.5,377.7,591.3,377.7,594.1,377.6"/>
</g>
<g>
	<path class="st14" d="M619,388.5l0.1,4.8l0.1,4.8c-2.8,0-5.7,0.1-8.5,0.1c0-3.2-0.1-6.4-0.1-9.6C613.3,388.6,616.1,388.6,619,388.5
		"/>
</g>
<g>
	<path class="st14" d="M606.5,388.7l0.1,9.6l-8.5,0.1l-0.1-9.6L606.5,388.7"/>
</g>
<g>
	<path class="st14" d="M594.1,388.9l0.1,4.8l0.1,4.8c-2.8,0-5.7,0.1-8.5,0.1c0-3.2-0.1-6.4-0.1-9.6
		C588.5,389,591.3,388.9,594.1,388.9"/>
</g>
<g>
	<path class="st15" d="M537,410l56.4,0l56.4,0c0,2,0,4,0,6c-37.6,0-75.2,0-112.7,0C537,413.9,537,412,537,410"/>
</g>
<g>
	<path class="st19" d="M654.3,317.5L654.3,317.5L654.3,317.5L654.3,317.5L654.3,317.5L654.3,317.5L654.3,317.5
		C654.3,317.5,654.3,317.5,654.3,317.5"/>
</g>
</svg>
