<?xml version="1.0" encoding="utf-8"?>
<!-- Generator: Adobe Illustrator 25.4.1, SVG Export Plug-In . SVG Version: 6.00 Build 0)  -->
<svg version="1.1" id="svg1744" xmlns="http://www.w3.org/2000/svg" xmlns:xlink="http://www.w3.org/1999/xlink" x="0px" y="0px"
	 viewBox="0 0 826.6 664.1" style="enable-background:new 0 0 826.6 664.1;" xml:space="preserve">
<style type="text/css">
	.st0{fill-rule:evenodd;clip-rule:evenodd;fill:#EFC7C2;}
	.st1{fill-rule:evenodd;clip-rule:evenodd;fill:#F4F3EE;}
	.st2{fill-rule:evenodd;clip-rule:evenodd;fill:#FFFFFF;}
	.st3{fill-rule:evenodd;clip-rule:evenodd;fill:#68A691;}
	
		.st4{fill-rule:evenodd;clip-rule:evenodd;fill:#FFFFFF;stroke:#5599FF;stroke-width:3.2951;stroke-linejoin:round;stroke-miterlimit:15.1181;}
	.st5{opacity:0.1;fill-rule:evenodd;clip-rule:evenodd;enable-background:new    ;}
	.st6{fill:#EFC7C2;}
	.st7{fill:#68A691;}
</style>
<path id="path1737" class="st0" d="M68,63.6c-11,0-20,9-20,20c0,0,0,0,0,0v400c0,11,9,20,20,20c0,0,0,0,0,0h600c11,0,20-9,20-20
	v-400c0-11.1-9-20-20-20L68,63.6L68,63.6z"/>
<path id="path1741" class="st1" d="M88,103.6h560v360H88L88,103.6L88,103.6z"/>
<path id="path1743" class="st0" d="M348,483.6v100h40v-100L348,483.6L348,483.6z"/>
<path id="path1745" class="st0" d="M248,563.6v40h20h200h20v-40h-20H268H248z"/>
<path id="path1759" class="st2" d="M590,266.8c-2.8,0-5.1,2.3-5.1,5.1v329.5c0,2.8,2.3,5.1,5.1,5.1l0,0h184.5c2.8,0,5.1-2.3,5.1-5.1
	V271.9c0-2.8-2.3-5.1-5.1-5.1L590,266.8C590,266.8,590,266.8,590,266.8z"/>
<path id="path1761" class="st3" d="M590,268.8L590,268.8h184.5c1.7,0,3.1,1.4,3.1,3.1v329.5c0,1.7-1.4,3.1-3.1,3.1H590l0,0
	c-1.7,0-3.1-1.4-3.1-3.1V271.9C586.9,270.1,588.3,268.8,590,268.8L590,268.8z"/>
<path id="path1763" class="st4" d="M603.2,561.8V311.4h158.2v250.4H603.2z"/>
<path id="path1765" class="st5" d="M587.1,604.2L587.1,604.2L587.1,604.2C587.2,604.3,587.1,604.3,587.1,604.2z"/>
<path id="path1925" class="st6" d="M393.8,178.6c-23.3,0-45.2,11.4-58.5,30.5c-6.1-2.4-12.7-3.6-19.3-3.6c-29.8,0-54,24.2-54,54l0,0
	c0,1.8,0.1,3.5,0.3,5.3c-32.5,2.2-57.8,29.2-57.8,61.8c0,34,27.4,61.6,61.3,61.9l0,0h0.6h193.3c39.5,0,71.5-32,71.5-71.5
	c0-37.4-28.9-68.5-66.2-71.3C462.8,208.1,431.6,178.7,393.8,178.6L393.8,178.6z"/>
<path id="path1927" class="st7" d="M692.8,394.2c-9.4,0-18.2,4.6-23.7,12.3c-2.5-1-5.1-1.5-7.8-1.5c-12,0-21.8,9.8-21.8,21.8
	c0,0.7,0,1.4,0.1,2.1c-13.1,0.9-23.3,11.8-23.3,25c0,13.7,11.1,24.9,24.8,25l0,0h0.3h78.1c16,0,28.9-12.9,28.9-28.9
	c0-15.1-11.7-27.7-26.7-28.8C720.6,406.1,708,394.2,692.8,394.2L692.8,394.2z"/>
</svg>
