<?xml version="1.0" encoding="utf-8"?>
<!-- Generator: Adobe Illustrator 25.4.1, SVG Export Plug-In . SVG Version: 6.00 Build 0)  -->
<svg version="1.1" id="Layer_1" xmlns="http://www.w3.org/2000/svg" xmlns:xlink="http://www.w3.org/1999/xlink" x="0px" y="0px"
	 viewBox="0 0 362.65 313.09" style="enable-background:new 0 0 362.65 313.09;" xml:space="preserve">
<style type="text/css">
	.st0{fill:#F2CC8F;}
	.st1{fill:#FFFFFF;}
	.st2{fill:#333333;}
	.st3{fill:#97ABDB;}
	.st4{fill:#282F44;}
</style>
<path class="st0" d="M288.78,229.97h-67.71l-16.25,28.34c-1.4,2.45-4.91,2.53-6.43,0.15l-13.82-28.7l-66.98,0.21
	c-7.58,0-13.78-6.2-13.78-13.78V114.32c0-7.58,6.2-13.78,13.78-13.78h171.19c7.58,0,13.78,6.2,13.78,13.78v101.88
	C302.56,223.77,296.36,229.97,288.78,229.97z"/>
<path class="st1" d="M247.77,183.71h-67.71l-16.25,28.34c-1.4,2.45-4.91,2.53-6.43,0.15l-13.82-28.7l-66.98,0.21
	c-7.58,0-13.78-6.2-13.78-13.78V68.06c0-7.58,6.2-13.78,13.78-13.78h171.19c7.58,0,13.78,6.2,13.78,13.78v101.88
	C261.55,177.51,255.35,183.71,247.77,183.71z"/>
<path class="st1" d="M253.02,175.84h-67.71l-16.25,28.34c-1.4,2.45-4.91,2.53-6.43,0.15l-13.82-28.7l-66.98,0.21
	c-7.58,0-13.78-6.2-13.78-13.78V60.18c0-7.58,6.2-13.78,13.78-13.78h171.19c7.58,0,13.78,6.2,13.78,13.78v101.88
	C266.8,169.64,260.6,175.84,253.02,175.84z"/>
<path class="st2" d="M283.59,97.34h-16.63V65.39c0-12.16-9.89-22.05-22.05-22.05H76.54c-12.16,0-22.05,9.89-22.05,22.05v101.28
	c0,12.16,9.89,22.05,22.05,22.05h16.63v31.95c0,12.16,9.89,22.05,22.05,22.05h60.63l19.98,33.74c0.75,1.26,2.11,2.04,3.58,2.04
	s2.83-0.78,3.58-2.04l19.98-33.74h60.63c12.16,0,22.05-9.89,22.05-22.05V119.39C305.64,107.23,295.75,97.34,283.59,97.34z
	 M62.8,166.66V65.39c0-7.57,6.16-13.74,13.74-13.74h168.37c7.57,0,13.74,6.16,13.74,13.74v101.28c0,7.57-6.16,13.74-13.74,13.74h-63
	c-1.47,0-2.83,0.78-3.58,2.04l-17.61,29.74l-17.61-29.74c-0.75-1.26-2.11-2.04-3.58-2.04h-63C68.96,180.4,62.8,174.24,62.8,166.66z
	 M297.33,220.66c0,7.57-6.16,13.74-13.74,13.74h-63c-1.47,0-2.83,0.78-3.58,2.04l-17.61,29.74l-17.61-29.74
	c-0.75-1.26-2.11-2.04-3.58-2.04h-63c-7.57,0-13.74-6.16-13.74-13.74v-31.95h35.68l19.98,33.74c0.75,1.26,2.11,2.04,3.58,2.04
	s2.83-0.78,3.58-2.04l19.98-33.74h60.63c12.16,0,22.05-9.89,22.05-22.05v-61.01h16.63c7.57,0,13.74,6.16,13.74,13.73V220.66z"/>
<path class="st3" d="M117.04,120.59h-13.78c-3.19,0-5.79-2.61-5.79-5.79v-13.78c0-3.19,2.61-5.79,5.79-5.79h13.78
	c3.19,0,5.79,2.61,5.79,5.79v13.78C122.83,117.99,120.23,120.59,117.04,120.59z"/>
<path class="st3" d="M171.94,120.59h-13.78c-3.19,0-5.79-2.61-5.79-5.79v-13.78c0-3.19,2.61-5.79,5.79-5.79h13.78
	c3.19,0,5.79,2.61,5.79,5.79v13.78C177.73,117.99,175.12,120.59,171.94,120.59z"/>
<path class="st3" d="M226.83,120.59h-13.78c-3.19,0-5.79-2.61-5.79-5.79v-13.78c0-3.19,2.61-5.79,5.79-5.79h13.78
	c3.19,0,5.79,2.61,5.79,5.79v13.78C232.63,117.99,230.02,120.59,226.83,120.59z"/>
<path class="st4" d="M110.08,131.01H95.65c-5.31,0-9.63-4.32-9.63-9.63v-14.43c0-5.31,4.32-9.63,9.63-9.63h14.43
	c5.31,0,9.63,4.32,9.63,9.63v14.43C119.71,126.69,115.39,131.01,110.08,131.01z M95.65,105.64c-0.71,0-1.3,0.6-1.3,1.3v14.43
	c0,0.71,0.6,1.3,1.3,1.3h14.43c0.71,0,1.3-0.6,1.3-1.3v-14.43c0-0.71-0.6-1.3-1.3-1.3H95.65z"/>
<g>
	<path class="st4" d="M164.97,131.01h-14.43c-5.31,0-9.63-4.32-9.63-9.63v-14.43c0-5.31,4.32-9.63,9.63-9.63h14.43
		c5.31,0,9.63,4.32,9.63,9.63v14.43C174.6,126.69,170.28,131.01,164.97,131.01z M150.54,105.64c-0.71,0-1.3,0.6-1.3,1.3v14.43
		c0,0.71,0.6,1.3,1.3,1.3h14.43c0.71,0,1.3-0.6,1.3-1.3v-14.43c0-0.71-0.6-1.3-1.3-1.3H150.54z"/>
</g>
<g>
	<path class="st4" d="M219.87,131.01h-14.43c-5.31,0-9.63-4.32-9.63-9.63v-14.43c0-5.31,4.32-9.63,9.63-9.63h14.43
		c5.31,0,9.63,4.32,9.63,9.63v14.43C229.5,126.69,225.18,131.01,219.87,131.01z M205.44,105.64c-0.71,0-1.3,0.6-1.3,1.3v14.43
		c0,0.71,0.6,1.3,1.3,1.3h14.43c0.71,0,1.3-0.6,1.3-1.3v-14.43c0-0.71-0.6-1.3-1.3-1.3H205.44z"/>
</g>
</svg>
