<?xml version="1.0" encoding="utf-8"?>
<!-- Generator: Adobe Illustrator 25.4.1, SVG Export Plug-In . SVG Version: 6.00 Build 0)  -->
<svg version="1.1" id="Layer_1" xmlns="http://www.w3.org/2000/svg" xmlns:xlink="http://www.w3.org/1999/xlink" x="0px" y="0px"
	 viewBox="0 0 150 118.7" style="enable-background:new 0 0 150 118.7;" xml:space="preserve">
<style type="text/css">
	.st0{fill:#EFC7C2;}
</style>
<path class="st0" d="M134.5,99.3c3.3-15.4-2.7-31.6-16.3-41c-1.1-0.8-2.3-1.5-3.4-2.1c-7.4-4.1-16-5.7-24.4-4.5
	c-2.5-6-6.4-11.3-11.4-15.5c-1.6-1.3-3.3-2.5-5-3.5c-3.9-2.3-8.1-3.9-12.4-4.8V9.2H8.3v37.3h53.1V32.3c3.6,0.8,7,2.1,10.2,4
	c1.6,0.9,3.1,2,4.5,3.1c4.3,3.5,7.6,8,9.9,13c-2.6,0.6-5.1,1.5-7.5,2.7c-1.6,0.8-2.7,2.3-2.8,4.1s0.7,3.5,2.2,4.5l7.3,4.8
	c1.6,1.1,3.7,1.1,5.4,0.1c1.7-1,2.7-2.8,2.5-4.8c-0.2-2.8-0.7-5.5-1.4-8.2c7.2-0.8,14.5,0.7,20.9,4.1c1,0.6,2.1,1.2,3.1,1.9
	c12.4,8.5,17.7,23.5,14.3,37.4h-9.8l5.6,9.7l5.6,9.7l5.6-9.7l5.6-9.7L134.5,99.3L134.5,99.3z M53.6,13.5l-14.9,9.4
	c-2.3,1.4-5.1,1.3-7.3-0.2l-12.8-9.1L53.6,13.5L53.6,13.5z M12.6,42.1V14.7l16.2,11.5c1.9,1.4,4.1,2,6.3,2c2,0,4-0.6,5.8-1.7
	L57,16.4v25.7H12.6z M88.5,65c-0.2,0.1-0.5,0.2-0.9,0l-7.3-4.8C80,60,80,59.7,80,59.6c0-0.2,0.1-0.4,0.3-0.5
	c2.3-1.1,4.6-1.9,7.1-2.5c0.8,2.5,1.2,5.1,1.4,7.8C89,64.7,88.7,65,88.5,65z"/>
</svg>
