<?xml version="1.0" encoding="utf-8"?>
<!-- Generator: Adobe Illustrator 25.4.1, SVG Export Plug-In . SVG Version: 6.00 Build 0)  -->
<svg version="1.1" id="Layer_1" xmlns="http://www.w3.org/2000/svg" xmlns:xlink="http://www.w3.org/1999/xlink" x="0px" y="0px"
	 viewBox="0 0 500 500" style="enable-background:new 0 0 500 500;" xml:space="preserve">
<style type="text/css">
	.st0{fill:#F2CC8F;}
	.st1{fill:#269386;}
	.st2{fill:#7A716C;}
	.st3{fill:#9E938C;}
	.st4{fill:#C4B5AB;}
	.st5{fill:#DECDC0;}
	.st6{fill:#FFFFFF;}
	.st7{fill:#33B5AA;}
</style>
<circle class="st0" cx="251" cy="251" r="201"/>
<path class="st1" d="M333.6,296.2v-8.4c0-0.5,0.1-1,0.1-1.5s0-1-0.1-1.5v-37.4c0-0.5,0.1-1,0.1-1.5s0-1-0.1-1.5V243v-35.9
	c0-0.5,0.1-1,0.1-1.5c0-0.5,0-1-0.1-1.5v-1.4h-0.2c-3.2-20.9-40.6-37.4-86.3-37.4s-83.1,16.5-86.3,37.4h-0.3l0.1,40.4h-0.1l0.1,43.3
	h-0.1l0.1,43.3h0.2c3.2,20.9,40.6,37.4,86.3,37.4c14.3,0,27.7-1.6,39.6-4.5c6.7,4.7,14.8,7.5,23.6,7.5c22.4,0,40.6-18.2,40.6-40.6
	C351,315.7,344.1,303.5,333.6,296.2z"/>
<g>
	<path class="st2" d="M328.9,323.4c0-0.5,0.1-1,0.1-1.5c0-0.5,0-1-0.1-1.5v-38.9h-173l0.1,43.3h0.2c3.2,20.9,40.6,37.4,86.3,37.4
		s83.1-16.5,86.3-37.4h0.2L328.9,323.4L328.9,323.4z"/>
	<path class="st3" d="M328.9,280.1v-41.8h-173l0.1,43.3c0,22.3,38.7,40.4,86.5,40.4s86.5-18.1,86.5-40.4
		C329,281.1,328.9,280.6,328.9,280.1z"/>
	<path class="st4" d="M328.9,239.7v-41.8h-173l0.1,43.3c0,22.3,38.7,40.4,86.5,40.4s86.5-18.1,86.5-40.4
		C329,240.7,328.9,240.2,328.9,239.7z"/>
	<ellipse class="st5" cx="242.5" cy="200.8" rx="86.5" ry="40.4"/>
	<ellipse class="st6" cx="305.7" cy="324.8" rx="40.6" ry="40.6"/>
	<path class="st7" d="M331,312.4c-0.8-0.8-2.2-0.8-3.1,0l-30.3,30.3l-14.3-14.3c-0.8-0.8-2.2-0.8-3.1,0c-0.8,0.8-0.8,2.2,0,3.1
		l15.4,15.4c0.1,0.2,0.2,0.4,0.4,0.6c0.4,0.4,1,0.6,1.5,0.6c0,0,0.1,0,0.1,0c0,0,0.1,0,0.1,0c0.6,0,1.1-0.2,1.5-0.6
		c0.2-0.2,0.3-0.4,0.4-0.6l31.3-31.3C331.8,314.6,331.8,313.2,331,312.4z"/>
</g>
</svg>
