<?xml version="1.0" encoding="utf-8"?>
<!-- Generator: Adobe Illustrator 25.4.1, SVG Export Plug-In . SVG Version: 6.00 Build 0)  -->
<svg version="1.1" id="Layer_1" xmlns="http://www.w3.org/2000/svg" xmlns:xlink="http://www.w3.org/1999/xlink" x="0px" y="0px"
	 viewBox="0 0 262.4 228.9" style="enable-background:new 0 0 262.4 228.9;" xml:space="preserve">
<style type="text/css">
	.st0{fill:#282F44;}
	.st1{fill:#3C464F;}
	.st2{fill:#A5B3BC;}
	.st3{fill:#FFFCFC;}
	.st4{fill:#B76B4D;}
	.st5{fill:#FF0000;fill-opacity:8.630000e-02;}
	.st6{fill:#FFFFFF;fill-opacity:0.9961;}
	.st7{fill-opacity:0.9961;}
	.st8{fill:#FF0000;fill-opacity:7.060000e-02;}
	.st9{fill:#F2E2E2;fill-opacity:0.9961;}
	.st10{fill:#090104;fill-opacity:0.9961;}
	.st11{fill:#FFC29D;}
	.st12{fill:#FF0000;fill-opacity:0.1176;}
	.st13{fill:#FF0000;fill-opacity:8.240000e-02;}
	.st14{fill:#BD7A5C;}
	.st15{fill:#FFFFFF;}
	.st16{fill:#8C5035;fill-opacity:0.5529;}
	.st17{fill:#8C5035;fill-opacity:0.349;}
	.st18{fill:#9A3A3A;}
	.st19{fill:#9EE2FF;fill-opacity:0.9961;}
	.st20{fill:#FF0000;fill-opacity:0.9961;}
	.st21{fill:#EC7A5E;fill-opacity:0.9961;}
	.st22{fill:#FF58AB;}
	.st23{fill:#F44336;}
	.st24{fill-opacity:0.2588;}
	.st25{fill:#A5B3BC;fill-opacity:0.1569;}
	.st26{fill:#33CA23;}
	.st27{fill:#282F44;fill-opacity:0.5098;}
	.st28{fill:#A5B3BC;fill-opacity:0.7608;}
	.st29{fill:#FFB89D;}
	.st30{fill:#F44336;fill-opacity:0.1294;}
	.st31{fill:#544545;}
	.st32{fill:#544545;fill-opacity:0.9961;}
	.st33{fill:#9BA6AD;}
	.st34{fill:#B5B3B3;fill-opacity:0.6314;}
	.st35{fill:#A09F9F;}
	.st36{fill:#7C858A;}
</style>
<g>
	<path class="st0" d="M111.3,150.1h23.6h23.6c0,19.9,0,39.8,0,59.6c-15.7,0-31.5,0-47.2,0C111.3,189.8,111.3,169.9,111.3,150.1z"/>
</g>
<g>
	<path class="st0" d="M25.2,20.8h110.1h110.1c0,47.7,0,95.4,0,143.1c-73.4,0-146.8,0-220.1,0C25.2,116.2,25.2,68.5,25.2,20.8z"/>
</g>
<g>
	<path class="st1" d="M30.8,27.2h104.5h104.5c0,43.2,0,86.3,0,129.5c-69.7,0-139.3,0-209,0C30.8,113.5,30.8,70.4,30.8,27.2z"/>
</g>
<g>
	<path class="st0" d="M77.4,203.2h57.6h57.6c0,3,0,6.1,0,9.2c-38.4,0-76.7,0-115.1,0C77.4,209.3,77.4,206.2,77.4,203.2z"/>
</g>
<g>
	<path class="st2" d="M125.2,30.3h21.6h21.6c0,13.6,0,27.2,0,40.8c-14.4,0-28.8,0-43.1,0C125.2,57.5,125.2,43.9,125.2,30.3"/>
</g>
<g>
	<path class="st3" d="M158.8,53.3l-0.4,1.9c-0.2,0.9-0.5,1.7-0.9,2.5c-0.1,0.4-0.7,1.5-1.9,3.2c-1,1.3-2.2,2.4-3.6,3.3
		c-1.4,0.9-2.9,1.5-4.4,1.8c-0.8,0.2-1.6,0.2-2.4,0.3c-0.4,0.1-1.6,0-3.7-0.4c-1.9-0.7-3.1-1.2-3.4-1.4c-0.7-0.4-1.3-0.9-1.9-1.4
		c-1.2-1-2.2-2.3-3-3.7c-1.8-3.5-2.4-7-1.6-10.5c0.4-1.7,1-3.3,1.8-4.7c0.4-0.7,0.9-1.4,1.4-2c0.2-0.4,1.1-1.2,2.7-2.5
		c2.7-1.9,5.7-2.7,9.1-2.4c0.5,0,1.7,0.3,3.6,1c0.7,0.3,1.4,0.7,2.1,1.1c1.3,0.9,2.5,2,3.5,3.3c1.1,1.7,1.7,2.8,1.8,3.2
		c0.3,0.8,0.5,1.5,0.7,2.3C158.9,49.7,159,51.5,158.8,53.3"/>
</g>
<g>
	<path d="M139.7,53.4l-0.2-0.2c-0.8-1-1.3-1.9-1.4-2.7c-0.1-0.7-1.2-2.7-0.5-4.1c-0.1-2.5,1.9-4.3,1.9-4.3c0.8-1.1,1.8-1.2,4.1-1.9
		c1.8-0.5,3.8,0.1,4.7,0.3c3,0.9,4.5,4.9,4.5,4.9c0.4,1.1-0.1,3.2-0.1,4c0,0.7-0.2,2-0.6,3.9L139.7,53.4z"/>
</g>
<g>
	<path class="st4" d="M144.3,68.9L144.3,68.9L144.3,68.9L144.3,68.9c-0.4-0.4-0.6-0.7-0.6-1.1c-0.1-0.3,1.6,0.2,1.7-0.8
		c-0.8-0.3-2.3,0.4-2.7-0.1c-0.4-0.4-2.4,0.1-3.1-1.3l1-6.9c-0.7-1.2-1.1-2.4-1.2-3.8c-0.7,0.5-1.2,0.2-1.6-0.7
		c-0.5-1.2-0.6-2.1-0.5-2.7c0.1-0.5,0.4-0.8,0.8-0.7c0.2,0.1,0.5,0.4,0.8,1.2l0.4-1.2c-0.2-0.8-0.2-1.5-0.1-2
		c0.1-0.4,0.2-0.9,0.5-1.4c2.1-0.8,3.7-1.3,4.9-1.4c1.2-0.1,3-0.1,5.6,0.2l1.3,2.4l0.2,3.3c0.2-0.9,0.5-1.5,0.8-1.8
		c0.4-0.4,0.6-0.4,0.8-0.1c0.2,0.5,0.1,1.5-0.2,3c-0.2,1-0.8,1.6-1.6,1.6c0,1.4-0.2,2.4-0.8,3.1l0,3.8c0,3.4,0.6,4.5-0.9,4.2
		c-1.6-0.3-0.9-1.1-1.7,0.8c-1.1,2.5,0.2-0.2-1.1,0.4l-1.3,1.2L144.3,68.9L144.3,68.9L144.3,68.9z"/>
</g>
<g>
	<path class="st5" d="M140.7,58.9l0.3,0.2c1.1,0.9,2.1,1.6,2.7,1.9c0.6,0.3,1.2,0.5,1.9,0.4c0.1,0,0.3,0,0.4-0.1
		c0.1,0,0.3-0.1,0.6-0.2c0.3-0.1,0.6-0.3,0.9-0.6c0.4-0.2,1.4-1.2,3.1-2.8l-5,5.9L140.7,58.9z"/>
</g>
<g>
	<path class="st6" d="M143.7,60.3L143.7,60.3L143.7,60.3L143.7,60.3z"/>
</g>
<g>
	<path class="st6" d="M147.5,50.6L147.5,50.6c0.4-0.2,0.6-0.3,0.8-0.3c0.1,0,0.1,0,0.2,0h0.1l0.1,0c0.1,0,0.1,0,0.2,0
		c0,0,0.1,0,0.2,0.1c0.1,0,0.2,0.1,0.4,0.2c-0.2,0.2-0.4,0.3-0.5,0.3c-0.1,0.1-0.2,0.1-0.3,0.1l-0.1,0h-0.1l-0.1,0
		c-0.1,0-0.2-0.1-0.3-0.1C147.8,50.8,147.7,50.7,147.5,50.6z"/>
</g>
<g>
	<path class="st7" d="M148.2,50.3L148.2,50.3c-0.1,0.1-0.1,0.2-0.2,0.3c0,0.1,0,0.2,0.1,0.4c0.2,0,0.3,0.1,0.4,0
		c0.1,0,0.2,0,0.4-0.1c0.1-0.1,0.1-0.2,0.1-0.3c0-0.1,0-0.2-0.1-0.3c-0.2-0.1-0.4-0.1-0.4-0.1C148.5,50.2,148.3,50.2,148.2,50.3z"/>
</g>
<g>
	<path d="M147.6,49.7L147.6,49.7c0.2-0.1,0.3-0.2,0.4-0.2c0,0,0.1,0,0.1,0l0.1,0l0.1,0l0.1,0c0.1,0,0.1,0,0.2,0l0.1,0
		c0,0,0.1,0,0.1,0c0.1,0,0.2,0.1,0.5,0.2L147.6,49.7z"/>
</g>
<g>
	<path class="st6" d="M143.5,50.8L143.5,50.8c-0.4-0.2-0.7-0.3-0.8-0.3c-0.1,0-0.1,0-0.2,0l-0.1,0l-0.1,0c-0.1,0-0.1,0-0.2,0
		c0,0-0.1,0-0.2,0.1c-0.1,0-0.2,0.1-0.4,0.2c0.2,0.2,0.4,0.3,0.6,0.3c0.1,0.1,0.2,0.1,0.3,0.1h0.1l0.1,0l0.1,0
		c0.1,0,0.2-0.1,0.3-0.1C143.2,51,143.3,50.9,143.5,50.8z"/>
</g>
<g>
	<path class="st7" d="M142.8,50.5L142.8,50.5c0.1,0.1,0.2,0.2,0.2,0.3c0,0.1,0,0.2,0,0.4c-0.2,0-0.3,0.1-0.4,0.1c-0.1,0-0.2,0-0.4,0
		c-0.1-0.1-0.1-0.2-0.1-0.3c0-0.1,0-0.2,0.1-0.3c0.2-0.1,0.4-0.1,0.4-0.1C142.5,50.5,142.6,50.5,142.8,50.5z"/>
</g>
<g>
	<path d="M143.3,49.9L143.3,49.9c-0.2-0.1-0.3-0.2-0.4-0.2c0,0-0.1,0-0.1,0l-0.1,0l-0.1,0h-0.1c-0.1,0-0.1,0-0.2,0l-0.1,0
		c0,0-0.1,0-0.1,0c-0.1,0-0.2,0.1-0.5,0.2L143.3,49.9z"/>
</g>
<g>
	<path class="st8" d="M143.4,57.3l0.1-0.1c0.6-0.2,1.1-0.4,1.3-0.4c0.1,0,0.3,0,0.5,0c0.1,0,0.3,0.1,0.5,0.1
		c0.2-0.1,0.4-0.2,0.5-0.3c0.2-0.1,0.3-0.1,0.4-0.1c0.1,0,0.2,0.1,0.4,0.2c0.1,0.1,0.3,0.2,0.5,0.5c-0.4,0.2-0.7,0.3-0.8,0.3
		c-0.5,0.2-1,0.3-1.4,0.2c-0.3,0-0.6-0.1-0.8-0.2C144.1,57.5,143.7,57.4,143.4,57.3z"/>
</g>
<g>
	<path class="st8" d="M144.2,53.6l0.7,0.6l0.7,0.6c0.4-0.4,0.7-0.9,1.1-1.3c-0.4,0.2-0.7,0.5-1.1,0.7L144.2,53.6z"/>
</g>
<g>
	<path class="st9" d="M146.6,50.3L146.6,50.3L146.6,50.3L146.6,50.3z"/>
</g>
<g>
	<path class="st8" d="M143.5,59.9L143.5,59.9c0.5-0.1,0.8-0.1,1.1-0.1c0.2,0,0.4,0,0.4,0c0.1,0,0.2,0,0.2,0c0.1,0,0.1,0,0.2,0l0.1,0
		c0.1,0,0.1,0,0.2,0c0.1,0,0.3,0.1,0.5,0.1L143.5,59.9z"/>
</g>
<g>
	<path class="st10" d="M152.4,50.4l0.1-0.2c0.1-0.3,0.1-0.6,0.1-0.7c0-0.1,0-0.1-0.1-0.1c-0.1,0.1-0.3,0.7-0.8,1.8l0.1-1.3
		c-0.8,4.5-1.5,7-2,7.5c-0.3,0.4-0.6,0.6-1,0.6c-0.2,0.1-0.8,0-1.9-0.2c-0.2,0-0.5,0-0.6,0.1c-0.3,0.1-0.5,0.5-0.7,1.2
		c-0.4-0.7-0.8-1.1-1.3-1.2c-0.4,0-0.7,0-1,0.1c-0.2,0-0.6,0.2-1.2,0.6l-0.2,0.1c-0.2,0-0.4-0.1-0.6-0.3c-0.2-0.3-0.5-0.9-0.7-1.9
		c-0.2-0.6-0.6-2.7-1.3-6.3c-0.1-0.6-0.2-0.7-0.3-0.4c-0.1,0.2-0.1,0.8-0.1,1.8c0.2,1.2,0.3,2.3,0.5,3.4c0.5,2.5,1,4.2,1.5,5.2
		c1.1,2.2,2.7,3.3,4.7,3.6c0.4,0,0.7,0,0.9-0.1l0.4-0.1c0.3-0.1,0.5-0.3,0.7-0.4c0.6-0.4,1.2-1.3,1.9-2.5c0.6-1.2,1-2.3,1.3-3.2
		C150.9,56.9,151.4,54.6,152.4,50.4"/>
</g>
<g>
	<path class="st10" d="M145.5,55.8L145.5,55.8l-2.7,0.5c-0.2,1.2-0.3,2.3-0.5,3.5c0.3-0.9,0.6-1.8,0.8-2.7L145.5,55.8"/>
</g>
<g>
	<path class="st10" d="M145.8,55.7L145.8,55.7c0.9,0.2,1.8,0.3,2.6,0.5l0.3,3.7c-0.4-1.1-0.7-2.2-1.1-3.2L145.8,55.7"/>
</g>
<g>
	<path class="st2" d="M165.3,51L165.3,51c0,10.9-8.9,19.8-19.8,19.8l0,0c-10.9,0-19.8-8.9-19.8-19.8l0,0c0-10.9,8.9-19.8,19.8-19.8
		l0,0C156.4,31.2,165.3,40,165.3,51L165.3,51 M132.6,51L132.6,51c0,7.1,5.8,12.9,12.9,12.9l0,0c7.1,0,12.9-5.8,12.9-12.9l0,0
		c0-7.1-5.8-12.9-12.9-12.9l0,0C138.4,38.1,132.6,43.9,132.6,51z"/>
</g>
<g>
	<g>
		<path class="st2" d="M34.3,30.2h21.6h21.6c0,13.6,0,27.2,0,40.8c-14.4,0-28.8,0-43.2,0C34.3,57.4,34.3,43.8,34.3,30.2"/>
	</g>
	<g>
		<path class="st3" d="M69.3,52.5l-0.4,2c-1.1,3.9-3.3,6.9-6.7,9c-3.4,2-7.1,2.6-11.3,1.7C47,64,44,61.8,42,58.4
			c-0.7-1.1-1.2-2.2-1.5-3.5L40,53.1c-0.2-1.3-0.2-2.6-0.1-4c0.6-4.1,2.4-7.4,5.5-9.9c3.1-2.4,6.7-3.5,10.9-3.1
			c4.1,0.6,7.4,2.4,9.9,5.5C68.6,44.7,69.7,48.4,69.3,52.5"/>
	</g>
	<g>
		<path class="st2" d="M50.6,59.8l0.1,0.6l0,0l0,0l0,0l0,0l0,0l0,0l0,0l0,0l0,0L50.6,59.8z"/>
	</g>
	<g>
		<path d="M49.5,55.4l-0.3-0.6c-0.9-1.7-1.4-2.9-1.7-3.8c-0.3-1.2-0.4-2.1-0.3-2.6c0.2-1,0.4-2,0.9-2.8c0.7-1.1,1.4-1.8,2.2-2.2
			c0.7-0.3,1.5-0.5,2.5-0.5c1.2-0.7,2-1.1,2.4-1.2c0.6-0.2,1.2-0.2,1.8,0c0.7,0.2,1.6,0.9,2.8,2.1c1.3,1.3,2.2,2.5,2.7,3.5
			c0.3,0.6,0.5,1.1,0.5,1.7l0,0.4c0,0.3-0.1,0.6-0.1,0.8c-0.2,1-0.6,3.3-1.7,4.8l0.6,0.3L49.5,55.4z"/>
	</g>
	<g>
		<path class="st11" d="M51.3,65.3l-0.4,0l0.4-4.7c-0.7-1-1.3-2-1.8-3.2c-0.3-0.6-0.5-1.9-0.5-3.4c0.1-2.4,0.5-4.1,0.9-5.3
			c0.2-0.8,0.5-1.2,0.5-1.3c0.3-0.5,0.7-0.9,1-1.3c0.4-0.4,1.2-0.9,2.7-1.5c2.1,2.4,4.1,4,5.9,4.9l0.9,2.8l0.5,2.2l0.4-1.9
			c0.3,0.4,0.4,0.8,0.5,1.2c0.1,0.7,0.1,1.6-0.3,2.6c-0.2,0.7-0.5,0.9-0.9,0.9c0,0.8-0.4,2-1,3l0.3,3.2L59.9,66
			c-1.3,0.9-2.6,1.3-3.9,1.1c-1.2-0.2-2.2-0.3-3.1-0.7C52.2,66.1,51.7,65.7,51.3,65.3z"/>
	</g>
	<g>
		<path class="st12" d="M54,55.6l1.2,1l1.1-1.3l-1.2,0.7L54,55.6"/>
	</g>
	<g>
		<path class="st13" d="M50.9,59.9l0.2,0.2c0.7,0.7,1.5,1.2,2.2,1.6c0.8,0.3,1.6,0.5,2.6,0.4c0.9-0.1,1.7-0.3,2.2-0.6
			c0.5-0.3,1.1-0.9,1.6-1.8L56,65.2L50.9,59.9"/>
	</g>
	<g>
		<path d="M51.5,52.2L51.5,52.2c0.2,0.1,0.4,0.1,0.5,0.1c0.1,0,0.2,0,0.3,0.1c0.2,0,0.3,0,0.5,0c0.1,0,0.1,0,0.2,0l0.1,0
			c0.1,0,0.1,0,0.2-0.1c0.2-0.1,0.4-0.1,0.7-0.3L51.5,52.2"/>
	</g>
	<g>
		<path d="M56.7,51.9L56.7,51.9c0.3,0.1,0.4,0.1,0.5,0.1c0.1,0,0.1,0,0.3,0.1c0,0,0.1,0,0.2,0c0,0,0.1,0,0.1,0c0.1,0,0.1,0,0.2,0
			c0.1,0,0.2,0,0.3,0c0.1,0,0.2,0,0.2-0.1c0.1-0.1,0.4-0.1,0.6-0.2L56.7,51.9"/>
	</g>
	<g>
		<path d="M51.6,50L51.6,50c0.3,0.1,0.6,0.1,0.8,0.1c0.1,0,0.1,0,0.2,0l0.1,0h0.1h0.1H53l0.1,0l0.1,0c0.1,0,0.1,0,0.2,0
			c0.1,0,0.3-0.1,0.6-0.1L51.6,50"/>
	</g>
	<g>
		<path d="M56.5,49.5L56.5,49.5c0.1,0,0.3,0.1,0.4,0.1c0.1,0,0.2,0,0.4,0.1c0.1,0,0.2,0,0.3,0h0.1h0.1H58l0.1,0c0.1,0,0.2,0,0.3,0
			c0.2,0,0.4-0.1,0.6-0.1L56.5,49.5"/>
	</g>
	<g>
		<path class="st12" d="M53.3,58.1L53.3,58.1c0.7-0.2,1.1-0.3,1.2-0.3c0.2,0,0.5,0,0.8,0c0.2,0,0.4,0,0.6,0c0.2,0,0.5,0,0.8,0
			c0.3,0,0.8,0.1,1.5,0.2c-0.9,0.1-1.5,0.2-1.8,0.2c-0.2,0-0.4,0-0.6,0.1c-0.2,0-0.3,0-0.5,0c-0.2,0-0.3,0-0.3,0c-0.1,0-0.1,0-0.2,0
			c-0.1,0-0.3,0-0.4,0c-0.1,0-0.3,0-0.4-0.1C53.6,58.1,53.4,58.1,53.3,58.1"/>
	</g>
	<g>
		<path class="st2" d="M74.8,51.3L74.8,51.3c0,10.9-8.9,19.8-19.8,19.8l0,0c-10.9,0-19.8-8.9-19.8-19.8l0,0
			c0-10.9,8.9-19.8,19.8-19.8l0,0C65.9,31.5,74.8,40.3,74.8,51.3L74.8,51.3 M42.1,51.3L42.1,51.3c0,7.1,5.8,12.9,12.9,12.9l0,0
			c7.1,0,12.9-5.8,12.9-12.9l0,0c0-7.1-5.8-12.9-12.9-12.9l0,0C47.9,38.4,42.1,44.2,42.1,51.3z"/>
	</g>
</g>
<g>
	<g>
		<path class="st2" d="M79.7,30.3h43.2v40.8H79.7L79.7,30.3"/>
	</g>
	<g>
		<path class="st3" d="M114.8,51.7l-0.4,1.9c-1,3.9-3.1,6.8-6.2,8.8c-3.1,2-6.6,2.6-10.4,1.7c-3.6-1.1-6.4-3.2-8.2-6.5
			c-0.6-1.1-1.1-2.2-1.4-3.4l-0.4-1.8c-0.2-1.3-0.2-2.6,0-3.9c0.6-4.1,2.3-7.3,5.1-9.7c2.9-2.4,6.2-3.4,10-3.1
			c3.8,0.5,6.8,2.3,9.1,5.3C114.3,44.1,115.2,47.7,114.8,51.7"/>
	</g>
	<g>
		<path d="M107.8,54.2l0.3-0.5c0.6-1,1-2.1,1.2-3.2c0.1-1,0.2-1.6,0.2-1.8c0-0.4-0.1-0.9-0.2-1.3c-0.3-1.2-0.6-1.9-0.7-2.2
			c-0.2-0.5-0.5-1-0.8-1.4c-0.6-0.9-1.3-1.7-2.2-2.4c-1.5-1.2-3.2-1.4-5.2-0.9c-1.9,0.6-3.4,1.8-4.5,3.6c-0.7,1.4-1,3.2-0.7,5.2
			c0.1,1.7,0.7,4.1,1.7,7.5L107.8,54.2"/>
	</g>
	<g>
		<path class="st14" d="M105.1,63.3L105.1,63.3l-0.4-2.6l2.1-2.7c0.3-0.4,0.5-0.8,0.6-0.9c0.4-0.6,0.7-1.4,0.8-2.3
			c0.1-0.6,0.1-1.5,0.2-2.7c0.1-0.8,0.2-1.6,0.2-2.4c0-0.9,0-1.4-0.1-1.7c-0.2-1.1-0.7-2.1-1.6-2.9l-2.9,3.3
			c-0.4,0.4-0.6,0.6-0.8,0.7c-0.2,0.1-0.4,0.2-0.7,0.3c0,0-0.5,0-1.4-0.1c-0.2,0-0.4,0.1-0.6,0.2c-0.2,0.1-0.5,0.3-0.7,0.6
			c-0.9,1.1-1.4,1.7-1.4,1.6c-0.3,0.3-0.7,0.5-1,0.6s-0.7,0.2-1,0.2c0-1.6,0-2.6-0.3-3.1c-0.3-0.7-0.7-0.7-1.2-0.2
			c-0.5,0.6-0.6,1.8-0.3,3.6c0.3,1.7,0.9,2.1,1.7,1.2c0.2,1.6,0.3,3.1,0.3,4.6c0,1-0.1,2.7-0.3,3.4c-0.7,2.6,0.6,1,1.8,2.7l4.2,3.3
			L105.1,63.3L105.1,63.3z"/>
	</g>
	<g>
		<path class="st15" d="M102.8,51.7L102.8,51.7c-0.2-0.2-0.4-0.3-0.5-0.5c-0.1,0-0.1-0.1-0.2-0.1l-0.1,0l-0.1,0c-0.1,0-0.1,0-0.1,0
			c-0.1,0-0.3,0-0.4,0c-0.1,0-0.4,0.1-0.7,0.1c0.2,0.2,0.4,0.3,0.6,0.4c0.1,0,0.1,0.1,0.2,0.1l0.1,0c0.1,0,0.1,0,0.2,0.1l0.1,0
			c0,0,0.1,0,0.1,0c0.1,0,0.2,0,0.3,0C102.2,51.8,102.5,51.8,102.8,51.7"/>
	</g>
	<g>
		<path d="M101.5,51L101.5,51c-0.1,0.2-0.2,0.2-0.2,0.3c0,0.1,0,0.2,0,0.3c0.1,0.1,0.2,0.1,0.3,0.2c0.1,0,0.2,0,0.4,0.1
			c0.1-0.1,0.2-0.1,0.2-0.2c0,0,0-0.1,0.1-0.1c0,0,0-0.1,0-0.2c-0.1-0.1-0.3-0.2-0.4-0.2C101.8,51,101.7,51,101.5,51"/>
	</g>
	<g>
		<path d="M103.3,50.6L103.3,50.6c-0.2-0.2-0.4-0.3-0.5-0.4c-0.1,0-0.1-0.1-0.2-0.1l-0.1,0c-0.1,0-0.1-0.1-0.2-0.1
			c-0.1,0-0.1,0-0.2-0.1l-0.1,0c-0.1,0-0.2,0-0.2,0c-0.2,0-0.5,0-0.9,0L103.3,50.6"/>
	</g>
	<g>
		<path class="st15" d="M106,52.3l0.1,0c0.2-0.1,0.4-0.1,0.6-0.2c0.1,0,0.1,0,0.2,0h0.1h0.1c0.1,0,0.1,0,0.1,0
			c0.1,0,0.2,0.1,0.4,0.2c0.1,0.1,0.3,0.2,0.6,0.4c-0.3,0.1-0.5,0.1-0.7,0.1c-0.1,0-0.1,0-0.2,0h-0.1c-0.1,0-0.1,0-0.2,0l-0.1,0
			c0,0-0.1,0-0.1,0c-0.1,0-0.2-0.1-0.2-0.1C106.5,52.6,106.3,52.5,106,52.3"/>
	</g>
	<g>
		<path d="M107.6,52.2L107.6,52.2c0,0.2,0,0.3,0,0.4c0,0.1-0.1,0.2-0.1,0.2c-0.1,0-0.3,0-0.4,0c-0.1,0-0.2-0.1-0.4-0.1
			c-0.1-0.1-0.1-0.2-0.1-0.2c0-0.1,0-0.1,0-0.2c0,0,0-0.1,0.1-0.2c0.2,0,0.3-0.1,0.4,0C107.2,52.1,107.4,52.1,107.6,52.2"/>
	</g>
	<g>
		<path d="M106,51.1L106,51.1c0.3-0.1,0.4-0.1,0.6-0.2c0.1,0,0.1,0,0.2,0h0.1c0.1,0,0.1,0,0.2,0c0.1,0,0.1,0,0.2,0l0.1,0
			c0.1,0,0.1,0.1,0.2,0.1c0.2,0.1,0.5,0.2,0.9,0.4L106,51.1"/>
	</g>
	<g>
		<path class="st16" d="M105.8,55.8l-1.4,0.6l-1-1.2l1.2,0.7L105.8,55.8"/>
	</g>
	<g>
		<path class="st17" d="M104.7,60.8l-0.1,0.1c-0.5,0.5-1.1,0.7-1.6,0.8c-0.6,0.1-1.2,0-1.7-0.3c-0.5-0.2-1-0.6-1.5-1.1
			c-0.6-0.6-1.4-1.6-2.4-2.8l6.6,9l1.1-3.1L104.7,60.8z"/>
	</g>
	<g>
		<path class="st18" d="M95.8,51.3L95.8,51.3L95.8,51.3L95.8,51.3"/>
	</g>
	<g>
		<path class="st19" d="M103.5,61.3L103.5,61.3L103.5,61.3L103.5,61.3"/>
	</g>
	<g>
		<path class="st19" d="M103.7,56.4L103.7,56.4L103.7,56.4L103.7,56.4"/>
	</g>
	<g>
		<path class="st20" d="M102,56.9l-0.2,0c0.3,0.2,0.6,0.3,0.9,0.4c0.2,0.1,0.4,0.2,0.4,0.2c0.1,0,0.2,0.1,0.3,0.1
			c0.2,0.1,0.4,0.1,0.7,0.1c0.1,0,0.2,0,0.4,0c0.1,0,0.1,0,0.2,0c0,0,0.1,0,0.3,0c0.1,0,0.3,0,0.4,0l-1-0.5L102,56.9"/>
	</g>
	<g>
		<path class="st20" d="M102.5,57.8L102.5,57.8L102.5,57.8L102.5,57.8"/>
	</g>
	<g>
		<path class="st21" d="M99.7,48.1L99.7,48.1L99.7,48.1L99.7,48.1"/>
	</g>
	<g>
		<path class="st6" d="M105.2,57.5l-2.8-0.6l-0.7,0l1,0.9l1.6,0.5l1.1-0.8L105.2,57.5"/>
	</g>
	<g>
		<path class="st22" d="M105.5,57.7L105.5,57.7c-0.4-0.4-0.7-0.6-0.9-0.7c-0.1-0.1-0.2-0.1-0.3-0.1c-0.1,0-0.2,0-0.4,0
			c-0.2-0.1-0.3-0.1-0.5-0.2c-0.2,0-0.4,0-0.6,0s-0.6,0.1-1,0.2l1.9,0.6L105.5,57.7"/>
	</g>
	<g>
		<path class="st22" d="M105.4,57.7L105.4,57.7c-0.4,0.5-0.8,0.8-1.1,0.9s-0.6,0.2-1,0.1c-0.4-0.1-0.7-0.3-0.9-0.5
			c-0.2-0.2-0.4-0.6-0.6-1.2c0.4,0.3,0.8,0.6,1,0.7c0.1,0.1,0.2,0.1,0.3,0.2l0.1,0.1c0.1,0,0.2,0.1,0.3,0.1c0.1,0,0.2,0,0.3,0h0.1
			c0.1,0,0.2,0,0.3,0C104.5,57.9,104.9,57.9,105.4,57.7"/>
	</g>
	<g>
		<path class="st7" d="M95.6,41.5l0,0.4c0.1,0.9,0.4,1.7,1.1,2.3c0.6,0.6,1.4,0.9,2.4,0.9c0.9-0.1,1.7-0.4,2.3-1.1
			c0.2-0.2,0.4-0.4,0.5-0.7l0.2-0.4c0.1-0.3,0.2-0.6,0.2-0.9c0.1-0.9-0.2-1.7-0.8-2.4s-1.3-1.1-2.2-1.2c-0.9-0.1-1.7,0.2-2.4,0.8
			C96.1,39.9,95.7,40.6,95.6,41.5"/>
	</g>
	<g>
		<path d="M91.3,44.2L91.3,44.2L91.3,44.2L91.3,44.2L91.3,44.2z"/>
	</g>
	<g>
		<path d="M91.3,44.2L91.3,44.2L91.3,44.2L91.3,44.2L91.3,44.2z"/>
	</g>
	<g>
		<path class="st23" d="M101.9,64.4L101.9,64.4L101.9,64.4L101.9,64.4"/>
	</g>
	<g>
		<path class="st2" d="M120.8,50.2L120.8,50.2C120.8,61.1,112,70,101,70l0,0c-10.9,0-19.8-8.9-19.8-19.8l0,0
			c0-10.9,8.9-19.8,19.8-19.8l0,0C112,30.4,120.8,39.3,120.8,50.2L120.8,50.2 M88.2,50.2L88.2,50.2c0,7.1,5.8,12.9,12.9,12.9l0,0
			c7.1,0,12.9-5.8,12.9-12.9l0,0c0-7.1-5.8-12.9-12.9-12.9l0,0C93.9,37.3,88.2,43.1,88.2,50.2z"/>
	</g>
</g>
<g>
	<path class="st2" d="M65.1,71.1L65.1,71.1L65.1,71.1L65.1,71.1L65.1,71.1L65.1,71.1L65.1,71.1L65.1,71.1"/>
</g>
<g>
	<g>
		<path d="M91.9,138.1h8.9c1.6,0,3,1.3,3,3v5.9c0,1.6-1.3,3-3,3h-8.9c-1.6,0-3-1.3-3-3v-5.9C89,139.4,90.3,138.1,91.9,138.1z
			 M103.8,142.6l3.6-2.7c0.6-0.5,1.6-0.4,2.1,0.3v5.9c0,0.8-0.7,1.5-1.5,1.5c-0.3,0-0.6-0.1-0.9-0.3l-3.6-2.7L103.8,142.6z"/>
	</g>
	<g>
		<path d="M91.9,138.1L91.9,138.1h8.9l0,0c1.6,0,3,1.3,3,3l0,0l0,0l0,0v5.9l0,0c0,1.6-1.3,3-3,3l0,0h-8.9l0,0c-1.6,0-3-1.3-3-3l0,0
			v-5.9l0,0C89,139.4,90.3,138.1,91.9,138.1L91.9,138.1 M91.9,138.1L91.9,138.1c-1.6,0-3,1.3-3,3l0,0v5.9l0,0c0,1.6,1.3,3,3,3l0,0
			h8.9l0,0c1.6,0,3-1.3,3-3l0,0v-5.9l0,0l0,0l0,0c0-1.6-1.3-3-3-3l0,0H91.9z M103.8,142.6L103.8,142.6l3.6-2.7l0,0
			c0.6-0.5,1.6-0.4,2.1,0.3l0,0v5.9l0,0c0,0.8-0.7,1.5-1.5,1.5l0,0c-0.3,0-0.6-0.1-0.9-0.3l0,0l-3.6-2.7l0,0L103.8,142.6
			L103.8,142.6 M103.8,142.6L103.8,142.6l-0.3,2.1l0,0l3.6,2.7l0,0c0.3,0.2,0.6,0.3,0.9,0.3l0,0c0.8,0,1.5-0.7,1.5-1.5l0,0v-5.9l0,0
			c-0.5-0.6-1.4-0.8-2.1-0.3l0,0L103.8,142.6z"/>
	</g>
</g>
<g>
	<g>
		<g>
			<path d="M122.2,138.3c1,0,1.7,0.8,1.7,1.7v3.5c0,1-0.8,1.7-1.7,1.7c-1,0-1.7-0.8-1.7-1.7V140C120.5,139,121.3,138.3,122.2,138.3z
				 M122.2,137.1c-1.6,0-2.9,1.3-2.9,2.9v3.5c0,1.6,1.3,2.9,2.9,2.9s2.9-1.3,2.9-2.9V140C125.1,138.4,123.8,137.1,122.2,137.1z"/>
		</g>
		<g>
			<path d="M127.4,142.3v1.2c0,2.7-2,4.9-4.6,5.2v1.2h2.3c0.3,0,0.6,0.3,0.6,0.6s-0.3,0.6-0.6,0.6h-5.8c-0.3,0-0.6-0.3-0.6-0.6
				s0.3-0.6,0.6-0.6h2.3v-1.2c-2.6-0.3-4.6-2.5-4.6-5.2v-1.2c0-0.3,0.3-0.6,0.6-0.6s0.6,0.3,0.6,0.6v1.2c0,2.2,1.8,4,4,4s4-1.8,4-4
				v-1.2c0-0.3,0.3-0.6,0.6-0.6S127.4,142,127.4,142.3z"/>
		</g>
	</g>
	<g>
		<path d="M122.2,138.3c-1,0-1.7,0.8-1.7,1.7v3.5c0,1,0.8,1.7,1.7,1.7s1.7-0.8,1.7-1.7V140C124,139,123.2,138.3,122.2,138.3z"/>
	</g>
</g>
<g>
	<g>
		<path d="M78.2,149h-9.7c-1.7,0-3.1-1.4-3.1-3.1v-3.6c0-1.7,1.4-3.1,3.1-3.1h9.7c1.7,0,3.1,1.4,3.1,3.1v3.6
			C81.3,147.6,79.9,149,78.2,149z"/>
	</g>
	<g>
		<path class="st15" d="M67.9,141.9h3.7h3.7v0.8c-2.5,0-5,0-7.5,0C67.9,142.4,67.9,142.2,67.9,141.9"/>
	</g>
	<g>
		<path class="st15" d="M67.9,143.7h7.5v0.8h-7.5V143.7"/>
	</g>
	<g>
		<path class="st15" d="M68,145.4h3.7h3.7v0.8c-2.5,0-5,0-7.5,0C68,145.9,68,145.7,68,145.4"/>
	</g>
</g>
<g>
	<path class="st24" d="M258.3,212.3l-1.1,0.3c-2.4,0.3-6.8,0.5-13.2,0.8c-3.2,0.1-6.9,0.2-11.2,0.3c-11.5,0.2-18.9,0.4-22.5,0.4
		c-5.8,0.1-11.8,0.2-18,0.2c-2.8,0-12.7,0.1-29.6,0.2c-13.9,0.1-28.6,0.1-44.3,0c-15,0-28.6-0.1-40.9-0.2
		c-14.8-0.2-23.3-0.3-25.4-0.3c-5.2-0.1-10-0.2-14.5-0.3c-20-0.5-28.4-1.1-25-1.6c1.5-0.3,5.2-0.5,11.1-0.8
		c2.9-0.1,6.4-0.2,10.5-0.3c1.4-0.1,8.7-0.2,21.8-0.5c21.8-0.4,48.2-0.5,79.2-0.5c7.8,0,15.2,0,22.4,0c17.4,0.1,27.6,0.1,30.4,0.2
		c12.6,0.1,24.1,0.3,34.4,0.5c10.3,0.2,18.4,0.4,24.3,0.6c3,0.1,5.4,0.2,7.2,0.4C255.3,211.7,256.8,212,258.3,212.3"/>
</g>
<path class="st25" d="M33.4,133.8h50.8h50.8c0,6.9,0,13.7,0,20.6c-33.8,0-67.7,0-101.5,0C33.4,147.5,33.4,140.6,33.4,133.8"/>
<g>
	<path class="st26" d="M50.9,144.9l-0.1,0.7c-0.2,1.4-0.9,2.5-1.9,3.3c-1.1,0.8-2.3,1.2-3.8,1c-1.4-0.2-2.5-0.9-3.3-1.9
		c-0.3-0.3-0.5-0.7-0.7-1.1l-0.2-0.6c-0.1-0.4-0.2-0.9-0.2-1.3c0-1.4,0.5-2.6,1.5-3.6c0.9-0.9,2.1-1.4,3.6-1.5
		c1.4,0,2.6,0.5,3.6,1.5S50.9,143.4,50.9,144.9"/>
</g>
<g>
	<path class="st27" d="M172.2,29.7h32.7h32.7c0,41.6,0,83.1,0,124.7c-21.8,0-43.6,0-65.5,0C172.2,112.8,172.2,71.2,172.2,29.7"/>
</g>
<g>
	<path class="st28" d="M176.1,33.2h58.1v54.9h-58.1V33.2"/>
</g>
<g>
	<path class="st3" d="M224.7,61.3l-0.3,2.6c-0.2,1.2-0.5,2.3-0.9,3.4c-0.1,0.6-0.8,2.1-2.2,4.4c-1.2,1.8-2.7,3.4-4.4,4.7
		c-1.8,1.4-3.7,2.3-5.7,2.9c-1,0.3-2,0.5-3.1,0.6c-0.5,0.2-2.2,0.1-5-0.2c-2.7-0.7-4.2-1.2-4.6-1.6c-1-0.5-1.8-1-2.7-1.6
		c-1.7-1.2-3.1-2.8-4.4-4.7c-2.8-4.5-3.8-9.2-3.1-13.9c0.3-2.4,1-4.5,1.9-6.5c0.5-1,1-1.9,1.7-2.8c0.2-0.5,1.4-1.7,3.4-3.6
		c3.4-2.8,7.4-4.1,12-4.1c0.6-0.1,2.3,0.2,4.9,0.9c1,0.3,2,0.8,2.9,1.3c1.8,1,3.5,2.4,5,4.1c1.7,2.2,2.6,3.6,2.7,4.1
		c0.5,1,0.9,2,1.2,3.1C224.5,56.5,224.7,58.8,224.7,61.3"/>
</g>
<g>
	<path d="M196.8,63.9l-0.1-0.6c-1-4.8-1.2-8-0.7-9.4c0.3-1.1,0.9-2.3,1.8-3.6c0.9-1.3,2-2.3,3.1-3c0.7-0.5,1.6-0.7,2.7-0.8
		c1,0,3.2-0.6,4.9,0c3.1,1,3.2,1.2,4.1,2.1c1.8,1.8,3.2,2.7,3.3,3.5c0.2,0.5,0.2,1.8-0.1,4c-0.2,1.5-0.8,4.8-1.8,9.9L196.8,63.9z"/>
</g>
<g>
	<path class="st29" d="M206.4,80.1l-7.1-1.8l0.4-5.3c-0.8-0.9-1.3-1.7-1.6-2.3c-0.2-0.6-0.4-1.8-0.5-3.4c-0.5,0.3-0.9,0-1.2-1
		c-0.4-1.1-0.7-2.2-0.7-3.5c0-1.2,0.3-1.9,0.8-1.9c0.3,0.1,0.6,0.8,1,2.4c0.4-2.9,0.7-4.9,0.9-6c0.2-1,0.4-1.9,0.8-2.6s1-1,1.7-1
		l0.8,0.1c2,0.6,3.1,0.8,3.4,0.8c0.2,0,0.7,0.1,1.6,0.1l3.4-0.2c0.5-0.1,1,0.1,1.5,0.4c0.2,0.1,0.5,0.4,0.6,1c0.6,2,0.8,3.2,0.8,3.4
		c0.1,0.9,0.2,2.7,0.1,5.5c0.5-1.2,1-2,1.7-2.4c0.4-0.2,0.5,0.4,0.2,1.6c-0.4,1.6-0.8,2.7-1.1,3.4c-0.4,0.8-0.8,1.3-1.3,1.6
		l-1.1,2.9l0.2,6.9L206.4,80.1z"/>
</g>
<g>
	<path class="st30" d="M209.4,73.6l-0.4,0.2c-0.9,0.5-1.4,0.8-1.5,0.8c-0.3,0.1-0.6,0.3-0.9,0.4c-0.5,0.2-1.1,0.3-1.7,0.4
		c-0.5,0-1.1-0.1-1.8-0.4c-0.1,0-0.4-0.2-1-0.4c-0.3-0.2-0.7-0.4-1.2-0.6l4.5,4.5L209.4,73.6"/>
</g>
<g>
	<path class="st6" d="M211.2,68.1L211.2,68.1C214.6,61.2,214.6,61.2,211.2,68.1"/>
</g>
<g>
	<path class="st6" d="M210.9,68.1L210.9,68.1C214.5,61.6,214.5,61.6,210.9,68.1"/>
</g>
<g>
	<path class="st6" d="M208.1,61l0.1,0c0.4-0.2,0.8-0.2,1-0.2c0.1,0,0.1,0,0.2,0l0.1,0l0.1,0c0.1,0,0.1,0,0.2,0.1
		c0,0,0.1,0.1,0.3,0.2c0.1,0.1,0.2,0.2,0.5,0.3c-0.3,0.2-0.6,0.3-0.8,0.3c-0.1,0.1-0.3,0.1-0.4,0.1l-0.1,0l-0.1,0l-0.1,0
		c-0.1-0.1-0.3-0.1-0.4-0.2C208.5,61.3,208.3,61.1,208.1,61"/>
</g>
<g>
	<path class="st31" d="M209.1,60.7L209.1,60.7c-0.1,0.1-0.2,0.2-0.2,0.4c0,0.1,0,0.3,0,0.5c0.2,0.1,0.4,0.1,0.5,0.1
		c0.1,0,0.3,0,0.6,0c0.1-0.2,0.2-0.3,0.2-0.4c0-0.1,0-0.2,0-0.4c-0.3-0.1-0.5-0.2-0.6-0.2C209.4,60.7,209.3,60.7,209.1,60.7"/>
</g>
<g>
	<path d="M208.4,59.8L208.4,59.8c0.3-0.1,0.5-0.2,0.6-0.2c0.1,0,0.1,0,0.2,0l0.1,0h0.1h0.1c0.1,0,0.1,0,0.2,0l0.1,0
		c0,0,0.1,0,0.1,0.1c0.1,0,0.3,0.1,0.6,0.3L208.4,59.8"/>
</g>
<g>
	<path class="st7" d="M210.3,54.1L210.3,54.1L210.3,54.1L210.3,54.1"/>
</g>
<g>
	<path class="st6" d="M203,60.5l-0.1-0.1c-0.4-0.2-0.7-0.4-0.9-0.5c-0.1,0-0.1,0-0.2,0l-0.1,0h-0.1c-0.1,0-0.1,0-0.2,0
		c0,0-0.1,0-0.3,0.1c-0.1,0-0.3,0.1-0.5,0.2c0.3,0.2,0.5,0.4,0.6,0.5c0.1,0.1,0.3,0.1,0.4,0.2l0.1,0l0.1,0l0.1,0
		c0.1,0,0.3-0.1,0.5-0.1C202.6,60.8,202.8,60.7,203,60.5"/>
</g>
<g>
	<path class="st31" d="M202.1,60L202.1,60c0.1,0.2,0.1,0.3,0.2,0.4c0,0.1,0,0.3-0.1,0.5c-0.2,0-0.4,0-0.5,0c-0.1,0-0.3-0.1-0.5-0.1
		c-0.1-0.2-0.1-0.3-0.1-0.4c0-0.1,0-0.2,0.1-0.4c0.3,0,0.5-0.1,0.6,0C201.8,60,202,60,202.1,60"/>
</g>
<g>
	<path d="M203,59.4L203,59.4c-0.2-0.2-0.4-0.3-0.5-0.3c0,0-0.1-0.1-0.2-0.1l-0.1,0l-0.1,0l-0.1,0c-0.1,0-0.1,0-0.2,0h-0.1
		c0,0-0.1,0-0.2,0c-0.1,0-0.3,0.1-0.7,0.2L203,59.4"/>
</g>
<g>
	<path class="st8" d="M202.3,69.1l0.2-0.1c0.8-0.3,1.4-0.4,1.7-0.4c0.2,0,0.4,0,0.6,0c0.2,0,0.4,0.1,0.6,0.2
		c0.3-0.2,0.5-0.3,0.7-0.3c0.2-0.1,0.4-0.1,0.5-0.1c0.2,0,0.3,0.1,0.5,0.2c0.2,0.1,0.4,0.3,0.6,0.6c-0.5,0.2-0.9,0.4-1,0.4
		c-0.6,0.2-1.3,0.3-1.8,0.2c-0.3-0.1-0.7-0.1-1.1-0.2C203.2,69.4,202.7,69.2,202.3,69.1"/>
</g>
<g>
	<path class="st8" d="M203.9,64.5l0.8,0.8l0.8,0.8c0.5-0.6,0.9-1.1,1.4-1.7c-0.5,0.3-1,0.6-1.4,0.9L203.9,64.5"/>
</g>
<g>
	<path class="st9" d="M207,60.4L207,60.4L207,60.4L207,60.4"/>
</g>
<g>
	<path class="st32" d="M206.3,80L206.3,80L206.3,80L206.3,80"/>
</g>
<g>
	<path class="st2" d="M230.9,59.2L230.9,59.2c1,13.9-9.4,26-23.3,27l0,0c-13.9,1-26-9.4-27-23.3l0,0c-1-13.9,9.4-26,23.3-27l0,0
		C217.8,34.8,229.9,45.3,230.9,59.2L230.9,59.2 M189.4,62.2L189.4,62.2c0.7,9,8.5,15.8,17.6,15.1l0,0c9-0.7,15.8-8.5,15.1-17.6l0,0
		c-0.7-9-8.5-15.8-17.6-15.2l0,0C195.5,45.3,188.8,53.2,189.4,62.2z"/>
</g>
<g>
	<path class="st33" d="M84.3,89.8h21.2c3.9,0,7.1,3.2,7.1,7.1V111c0,3.9-3.2,7.1-7.1,7.1H84.3c-3.9,0-7.1-3.2-7.1-7.1V96.9
		C77.2,93,80.4,89.8,84.3,89.8z"/>
</g>
<g>
	<path class="st33" d="M112.6,100.4l8.5-6.4c1.6-1.2,3.8-0.9,5,0.7v14.2c0,1.9-1.6,3.5-3.5,3.5c-0.8,0-1.5-0.2-2.1-0.7l-8.5-6.4
		L112.6,100.4z"/>
</g>
<g>
	<path d="M84.3,89.8L84.3,89.8h21.2l0,0c3.9,0,7.1,3.2,7.1,7.1l0,0c0,0,0,0,0,0l0,0V111l0,0c0,3.9-3.2,7.1-7.1,7.1l0,0H84.3l0,0
		c-3.9,0-7.1-3.2-7.1-7.1l0,0V96.9l0,0C77.2,93,80.4,89.8,84.3,89.8L84.3,89.8 M84.3,89.8L84.3,89.8c-3.9,0-7.1,3.2-7.1,7.1l0,0V111
		l0,0c0,3.9,3.2,7.1,7.1,7.1l0,0h21.2l0,0c3.9,0,7.1-3.2,7.1-7.1l0,0V96.9l0,0c0,0,0,0,0,0l0,0c0-3.9-3.2-7.1-7.1-7.1l0,0H84.3z
		 M112.6,100.4L112.6,100.4l8.5-6.4l0,0c1.6-1.2,3.8-0.9,5,0.7l0,0v14.2l0,0c0,1.9-1.6,3.5-3.5,3.5l0,0c-0.8,0-1.5-0.2-2.1-0.7l0,0
		l-8.5-6.4l0,0L112.6,100.4L112.6,100.4 M112.6,100.4L112.6,100.4l-0.7,5l0,0l8.5,6.4l0,0c0.6,0.5,1.4,0.7,2.1,0.7l0,0
		c2,0,3.5-1.6,3.5-3.5l0,0V94.7l0,0c-1.2-1.6-3.4-1.9-5-0.7l0,0L112.6,100.4z"/>
</g>
<g>
	<path class="st34" d="M181.1,97.9h18.9h18.9v2.8h-37.8L181.1,97.9"/>
</g>
<g>
	<path class="st35" d="M181.1,107.9h22.6h22.6c0,0.9,0,1.9,0,2.8c-15,0-30.1,0-45.1,0C181.1,109.8,181.1,108.8,181.1,107.9"/>
</g>
<g>
	<path class="st35" d="M181.1,117.8h18.9h18.9v2.8h-37.8L181.1,117.8"/>
</g>
<g>
	<path class="st35" d="M181.1,127.8h22.6h22.6c0,0.9,0,1.9,0,2.8c-15.1,0-30.1,0-45.2,0C181.1,129.7,181.1,128.7,181.1,127.8"/>
</g>
<g>
	<path class="st35" d="M181.1,137.8h23.8h23.8c0,0.9,0,1.9,0,2.8c-15.9,0-31.7,0-47.6,0C181.1,139.6,181.1,138.7,181.1,137.8"/>
</g>
<g>
	<path class="st36" d="M85.8,91.8H104c3.4,0,6.1,2.7,6.1,6.1V110c0,3.4-2.7,6.1-6.1,6.1H85.8c-3.4,0-6.1-2.7-6.1-6.1V97.9
		C79.7,94.5,82.5,91.8,85.8,91.8z"/>
</g>
</svg>
