<?xml version="1.0" encoding="utf-8"?>
<!-- Generator: Adobe Illustrator 25.4.1, SVG Export Plug-In . SVG Version: 6.00 Build 0)  -->
<svg version="1.1" id="Layer_1" xmlns="http://www.w3.org/2000/svg" xmlns:xlink="http://www.w3.org/1999/xlink" x="0px" y="0px"
	 viewBox="0 0 914 653" style="enable-background:new 0 0 914 653;" xml:space="preserve">
<style type="text/css">
	.st0{fill-opacity:0.502;}
	.st1{fill:#FFFFFF;}
	.st2{fill:#E6E6E6;}
	.st3{fill:#B3B3B3;}
	.st4{fill:#929FA8;}
	.st5{fill:#3C464F;}
	.st6{fill:#FF0000;}
	.st7{fill:#FFC090;}
	.st8{fill-opacity:0.2667;}
	.st9{fill-opacity:0.1922;}
</style>
<g>
	<path class="st0" d="M825,553.4l-3.4,1.1c-15.9,2.3-62.5,4.1-139.7,5.4c-77.8,1.4-169.3,1.9-274.7,1.7
		c-100.6-0.4-181-1.4-241.3-3.1c-19.3-0.6-35.2-1.2-47.7-1.8l-15.8-1c-8.7-0.7-13-1.4-13.1-2.2c2.6-2.3,38.5-4.3,107.7-5.9
		c69.2-1.6,155.9-2.4,260.1-2.4c104.2,0.1,190.9,0.9,260.1,2.4C786.5,549.1,822.4,551,825,553.4"/>
</g>
<g>
	<path d="M560.8,441.8h44.3l44.3,0c0,37.3,0,74.6,0,111.8c-29.5,0-59,0-88.5,0C560.8,516.4,560.8,479.1,560.8,441.8z"/>
</g>
<g>
	<path d="M399.4,199.4l206.4,0l206.4,0c0,89.5,0,178.9,0,268.4c-137.6,0-275.1,0-412.7,0C399.4,378.3,399.4,288.9,399.4,199.4z"/>
</g>
<g>
	<path class="st1" d="M409.8,211.5l195.9,0l195.9,0c0,80.9,0,161.8,0,242.7c-130.6,0-261.2,0-391.8,0
		C409.8,373.3,409.8,292.4,409.8,211.5z"/>
</g>
<g>
	<path d="M497.2,541.4l107.9,0l107.9,0c0,5.7,0,11.4,0,17.2c-71.9,0-143.8,0-215.8,0C497.2,552.8,497.2,547.1,497.2,541.4z"/>
</g>
<g>
	<path class="st1" d="M671.2,136.7L671.2,136.7L671.2,136.7L671.2,136.7L671.2,136.7L671.2,136.7L671.2,136.7
		C671.2,136.7,671.2,136.7,671.2,136.7z"/>
</g>
<g>
	<path class="st2" d="M440.1,357.5l78.5,0v11.2l-78.5,0V357.5z M440.1,357.5l78.5,0v11.2l-78.5,0V357.5z M440.1,357.5l78.5,0v11.2
		l-78.5,0V357.5z M440.1,357.5l78.5,0v11.2l-78.5,0V357.5z"/>
</g>
<g>
	<path class="st2" d="M440.1,379.9l59.8,0v11.2l-59.8,0V379.9z M440.1,379.9l59.8,0v11.2l-59.8,0V379.9z M440.1,379.9l59.8,0v11.2
		l-59.8,0V379.9z M440.1,379.9l59.8,0v11.2l-59.8,0V379.9z"/>
</g>
<g>
	<path class="st2" d="M440.1,398.7l78.5,0v11.2l-78.5,0V398.7z M440.1,398.7l78.5,0v11.2l-78.5,0V398.7z M440.1,398.7l78.5,0v11.2
		l-78.5,0V398.7z M440.1,398.7l78.5,0v11.2l-78.5,0V398.7z"/>
</g>
<g>
	<path class="st2" d="M440.1,421.1l78.5,0v7.5l-78.5,0V421.1z M440.1,421.1l78.5,0v7.5l-78.5,0V421.1z M440.1,421.1l78.5,0v7.5
		l-78.5,0V421.1z M440.1,421.1l78.5,0v7.5l-78.5,0V421.1z"/>
</g>
<g>
	<path class="st2" d="M529.8,379.9l59.8,0v11.2l-59.8,0V379.9z M529.8,379.9l59.8,0v11.2l-59.8,0V379.9z M529.8,379.9l59.8,0v11.2
		l-59.8,0V379.9z M529.8,379.9l59.8,0v11.2l-59.8,0V379.9z"/>
</g>
<g>
	<path class="st2" d="M529.8,398.7l78.5,0v11.2l-78.5,0V398.7z M529.8,398.7l78.5,0v11.2l-78.5,0V398.7z M529.8,398.7l78.5,0v11.2
		l-78.5,0V398.7z M529.8,398.7l78.5,0v11.2l-78.5,0V398.7z"/>
</g>
<g>
	<path class="st2" d="M529.8,421.1l78.5,0v7.5l-78.5,0V421.1z M529.8,421.1l78.5,0v7.5l-78.5,0V421.1z M529.8,421.1l78.5,0v7.5
		l-78.5,0V421.1z M529.8,421.1l78.5,0v7.5l-78.5,0V421.1z"/>
</g>
<g>
	<path class="st1" d="M750.5,271.7c-3.1,0-6.5-2.5-6.5-5.6v-53.5l57.2,59.2H750.5L750.5,271.7z"/>
</g>
<g>
	<path class="st2" d="M650.9,330.9l124,0v5.6l-124,0V330.9z M650.9,330.9l124,0v5.6l-124,0V330.9z M650.9,330.9l124,0v5.6l-124,0
		V330.9z M650.9,330.9l124,0v5.6l-124,0V330.9z"/>
</g>
<g>
	<path class="st3" d="M650.9,342.1l101.4,0v2.8l-101.4,0V342.1z M650.9,342.1l101.4,0v2.8l-101.4,0V342.1z M650.9,342.1l101.4,0v2.8
		l-101.4,0V342.1z M650.9,342.1l101.4,0v2.8l-101.4,0V342.1z"/>
</g>
<g>
	<path class="st3" d="M681.9,404.1l90.2,0v2.8l-90.2,0V404.1z M681.9,404.1l90.2,0v2.8l-90.2,0V404.1z M681.9,404.1l90.2,0v2.8
		l-90.2,0V404.1z M681.9,404.1l90.2,0v2.8l-90.2,0V404.1z"/>
</g>
<g>
	<path class="st3" d="M681.9,412.6l90.2,0v2.8l-90.2,0V412.6z M681.9,412.6l90.2,0v2.8l-90.2,0V412.6z M681.9,412.6l90.2,0v2.8
		l-90.2,0V412.6z M681.9,412.6l90.2,0v2.8l-90.2,0V412.6z"/>
</g>
<g>
	<path class="st3" d="M681.9,429.5l90.2,0v2.8l-90.2,0V429.5z M681.9,429.5l90.2,0v2.8l-90.2,0V429.5z M681.9,429.5l90.2,0v2.8
		l-90.2,0V429.5z M681.9,429.5l90.2,0v2.8l-90.2,0V429.5z"/>
</g>
<g>
	<path class="st3" d="M681.9,437.9l90.2,0v2.8l-90.2,0V437.9z M681.9,437.9l90.2,0v2.8l-90.2,0V437.9z M681.9,437.9l90.2,0v2.8
		l-90.2,0V437.9z M681.9,437.9l90.2,0v2.8l-90.2,0V437.9z"/>
</g>
<g>
	<path class="st3" d="M650.9,350.6l118.3,0v2.8l-118.3,0V350.6z M650.9,350.6l118.3,0v2.8l-118.3,0V350.6z M650.9,350.6l118.3,0v2.8
		l-118.3,0V350.6z M650.9,350.6l118.3,0v2.8l-118.3,0V350.6z"/>
</g>
<g>
	<path class="st3" d="M650.9,359.1l67.6,0v2.8l-67.6,0V359.1z M650.9,359.1l67.6,0v2.8l-67.6,0V359.1z M650.9,359.1l67.6,0v2.8
		l-67.6,0V359.1z M650.9,359.1l67.6,0v2.8l-67.6,0V359.1z"/>
</g>
<g>
	<path class="st4" d="M635.1,227.3l72.4,0l72.4,0c0,25.8,0,51.5,0,77.3c-48.2,0-96.5,0-144.7,0C635.1,278.9,635.1,253.1,635.1,227.3
		"/>
</g>
<g>
	<path class="st5" d="M508.7,219.9l-2.7,15.6l0,0c-3.4,0.5-6.6,1.4-9.7,2.6v0L486,226l-9.6,5.5l5.4,14.9l0,0c-2.6,2.1-5,4.5-7.1,7.1
		l0,0l-14.9-5.4l-5.5,9.6l12.2,10.2c-1.2,3.1-2,6.3-2.6,9.7l0,0l-15.6,2.7v11.1l15.6,2.7l0,0c0.5,3.4,1.4,6.6,2.6,9.7L454.3,314
		l5.5,9.6l14.9-5.4l0,0c2.1,2.6,4.5,5,7.1,7.1l0,0l-5.4,14.9l9.6,5.5l10.2-12.2v0c3.1,1.2,6.4,2.1,9.7,2.6l0,0l2.7,15.6l11.1,0
		l2.7-15.6l0,0c3.4-0.5,6.6-1.4,9.7-2.6l10.2,12.2l9.6-5.5l-5.5-14.9c2.6-2.1,5-4.5,7.1-7.1l14.9,5.4l5.5-9.6l-12.2-10.2
		c1.2-3.1,2.1-6.3,2.6-9.7l15.6-2.7v-11.1l-15.6-2.7c-0.5-3.4-1.4-6.6-2.6-9.7l12.2-10.2l-5.5-9.6l-14.9,5.4c-2.1-2.6-4.5-5-7.1-7.1
		l5.5-14.9l-9.6-5.5l-10.2,12.2c-3.1-1.2-6.4-2-9.7-2.6l0,0l-2.7-15.6L508.7,219.9L508.7,219.9z M514.2,246.9c21.5,0,39,17.5,39,39
		c0,21.5-17.5,39-39,39c-21.5,0-39-17.5-39-39C475.2,264.3,492.7,246.9,514.2,246.9z"/>
</g>
<g>
	<path d="M351.1,518.4c1.6,0,3.4,0.6,5.6,1.9c1.1,0.6,2.6,1.7,4.6,3.2l21.2,13.5c2.4,5.9,3.5,9.8,3.5,11.7c0,2-1,3.2-3.2,3.7
		l-6.6,0.9l-8.8,1.9c-1.6,0.3-3.1,0.6-4.4,0.7c-3.3,0.4-7.1,0.7-11.4,0.6c-4.7,0-7.5-0.4-8.5-1.2c-1-0.5-1.8-1.8-2.5-3.8
		c-1.7-0.1-2.8-0.5-3.4-1.3c-0.6-0.7-0.8-1.8-0.9-3.3c0.3-5.6,2.4-12.5,6.3-20.7C345.2,520.9,348.1,518.2,351.1,518.4"/>
</g>
<g>
	<path d="M385.2,257.3c2.3,0,4.6,0.7,7.1,2.2c2.7,1.6,5,3.6,6.7,5.9c1,1.4,1.5,2.7,1.6,3.9c0,0.4,0,0.8-0.1,1.2
		c-0.3,1.6-0.7,3.8-1,6.6l-27.7-2l0.7-9.3c0.2-1.2,0.6-2.2,1.3-3.1c1.2-1.5,2.9-2.8,5.1-3.8C381.1,257.8,383.1,257.3,385.2,257.3"/>
</g>
<g>
	<path class="st6" d="M388.3,251.3l10.6,6.5c1.2,4.7,1.7,8.8,1.7,12.5l-3.9-3.9c-9.3-1.7-15.2-2.6-17.7-2.8c-2.9-0.2-4.9,0.1-6.1,1
		c-0.7-1.6-0.9-2.5-0.8-2.7c0-0.1,0.1-0.2,0.2-0.2c0.5-0.2,0.9-0.4,1.1-0.6c0.2-0.2,0.5-0.5,0.7-0.9c0.5-0.7,1.3-2.4,2.3-4.9
		L388.3,251.3"/>
</g>
<g>
	<path class="st6" d="M397.9,289.5l2.8,6.6c7,0.7,12.8,3.3,17.5,7.8c3.2,3.1,5.4,6.8,6.6,11.1c0.9,3.3,1.2,7.4,0.7,12.3
		c-0.2,2.6-0.7,5.6-1.2,8.8c-3.2,15.3-4.8,23-4.5,23.1c-0.7,4.9-0.7,9.2-0.1,12.9l-61.4-32.1c-2.4-1.5-6.7-1.9-12.7-1.1
		c5.3-15.2,9.9-24.4,13.7-27.6c1.1-1.1,2.4-2,4-2.9l7.1-3.2c0.8-0.4,1.5-0.8,2.1-1.4c1.6-1.3,2.9-3.7,3.9-7.2L397.9,289.5"/>
</g>
<g>
	<path d="M346.2,521C348.2,524.1,348.3,524.1,346.2,521 M389,323.8c5.4,15.2,9.9,25.3,13.5,30.4c3.5,5.5,9.4,11.1,17.9,16.8
		c0.6,8.2,0.8,14.5,0.7,19c-0.3,7.9-1.6,14.5-4.1,19.9c-1.2,2.7-2.7,5.5-4.5,8.5l-12.3,18c-1.8,2.8-3.4,5.5-4.8,8.2
		c-3.4,6.4-6.8,15.9-10.4,28.3c-0.5,27.4-1,49.9-1.5,67.6l-2.3,0.6c-1.5,0.3-3.3,0.2-5.3-0.3c-11.4-4.2-17.7-6-18.8-5.3l2.7-10.5
		c-6,2.2-10,1.7-11.9-1.6c0.2,0,0.2-0.4,0.1-1.1c-1.5-6.6-2.4-11.2-2.7-13.8c-0.4-3.2-0.6-6-0.5-8.3c0.1-2.3,0.4-4.4,1-6.1l7.6-19.1
		c-0.3-27.9,0.2-47.7,1.3-59.4c0.4-5,1-9.9,1.8-14.5c0.2-1.8,1.9-10.2,5.1-25.1c0.7-3.6,1.1-6.8,1.3-9.6c0.9-8.8-0.2-21.3-3.3-37.7
		l29.2-4.8"/>
</g>
<g>
	<path d="M401,296.2c1.7,0.2,3.3,0.5,4.8,0.9h0c-6,6.5-10.1,11.5-12.3,15c-2.6,3.9-4.6,8.6-6.2,13.9l-7,1.1c1.4-3.3,2.5-5.9,3.3-7.6
		c1.9-4,4.1-7.6,6.6-10.9C392.4,305.7,396,301.6,401,296.2L401,296.2z"/>
</g>
<g>
	<path d="M371.1,304.9c-1.6,3.6-2.8,6.8-3.6,9.4c-0.9,2.9-1.9,8-3.1,15.2l-4.1-0.2c1.5-7.6,2.8-13.3,3.9-16.9
		c0.6-2.1,1.2-3.8,1.7-5.1h0l4.3-1.9C370.5,305.2,370.8,305,371.1,304.9L371.1,304.9z"/>
</g>
<g>
	<path class="st7" d="M396,325.2c0.6,0,0.6,0.5,0.3,1.4c-0.3,0.8-1.2,2.4-2.7,4.7c7.1,1.6,11.5,3.6,13.3,5.9
		c1.3,1.3,2.6,3.6,3.9,6.9l-2.9,2.8c-4.8,4.6-10,7.7-15.6,9.4c-1.8,0.6-3.9,1.1-6.1,1.7l-14.1,2.9l-10.7,2.6c-2.7,0.6-5.4,0.9-8,1
		c-6.2,0.1-9.9-1.7-10.9-5.5c-1-3.9,0.3-10.7,3.9-20.4c3.2-0.8,6.2-1.1,9-0.9c1.6,0.2,3,1.1,4.1,2.8c1.6-1.4,3.1-2.2,4.5-2.4
		c0.6-0.1,1.2-0.1,2-0.1c4.3,0.2,7.1,0.2,8.2,0.1c2-0.1,4.1-0.5,6.3-1c2.2-0.6,3.7-1.3,4.7-2c0.4-0.3,0.8-0.7,1-1.1
		c0.8-1.9,1.3-2.9,1.5-3c0.4-0.6,0.9-1.1,1.5-1.6C391.8,327,394.1,325.6,396,325.2"/>
</g>
<g>
	<path class="st7" d="M383.9,261.9c2.9-0.1,7.2,1.3,12.8,4.4l0.2,9.1l1.1,0.4c0.9-1.5,1.7-2,2.3-1.6c1.1,0.5,1.5,1.6,1.5,3.2
		c-0.4,3-1.8,5.3-4.4,7.2c-0.6,2.3-0.9,3.9-0.9,4.7c0,0.7,0.3,1.5,0.9,2.1l-16.3,15.3l-1,4.3l-1.5-7.2l-1.6-4.9l0.2-6
		c-1.2-0.9-2-1.8-2.4-2.6c-0.5-0.9-1-2.9-1.3-6c-0.8-0.2-1.5-0.8-1.8-1.9c-0.8-2.5-1.2-4.9-1.2-7.2c0.1-0.9,0.3-1.4,0.7-1.6
		c0.1-0.1,0.3,0,0.5,0.1l1.2,0.8c0.1-4.8,0.5-8.3,1-10.5C378.4,262.5,381.7,261.9,383.9,261.9"/>
</g>
<g>
	<path class="st8" d="M393.3,331.8c-1.6,2.1-4.3,3.7-8.3,4.8c-2,0.5-4.7,1.1-8.1,1.5c-4.2,0.5-7.6,0.9-10.4,1l0,0c0,0,0.3-0.1,1-0.2
		c3.8-0.5,6.2-0.7,7-0.8c1.2-0.2,2.3-0.3,3.2-0.4c2.2-0.3,4.1-0.7,5.7-1.2c0.5-0.1,1.3-0.4,2.1-0.6l4.7-1.8L393.3,331.8L393.3,331.8
		z M358.6,340.7c-0.7,1.5-1,2.8-1.2,3.7c-0.1,0.8,0.1,1.4,0.5,1.8c0.3,0.4,0.9,0.7,1.7,1l1.3,0.5c1.2,0.2,2.1,0.5,2.8,0.7
		c0.7,0.3,1.4,0.6,2,1c0.6,0.4,1.2,0.8,1.7,1.4c2.6,2.7,4.1,4.2,4.5,4.4c1,0.8,1.9,1.5,2.9,2c1.5,0.8,3.3,1.2,5.3,1.2
		c0.2,0,0.4,0,0.6,0c2,0,5.3-0.5,9.7-1.5l0,0c-4.4,1.2-7.7,1.9-9.9,2c-0.3,0-0.7,0-1,0c-2,0-3.9-0.4-5.4-1.2c-0.9-0.5-1.9-1.1-3-2
		c-0.3-0.2-2-1.7-5.1-4.6c-0.7-0.6-1.4-1.1-1.9-1.5c-0.6-0.4-1.3-0.7-1.9-1c-0.4-0.2-1.7-0.7-4.1-1.5c-0.5-0.2-0.9-0.4-1.1-0.7
		C356.2,345.6,356.7,343.7,358.6,340.7L358.6,340.7L358.6,340.7z M370.7,417.1l-12.1,30c-2.2,7.4-3.5,12.5-4.1,15.5
		c-0.6,3-1,6.6-1.1,10.7c-0.1-4.8,0-8.8,0.4-11.9c0.4-3.4,1.2-7,2.3-10.6C358,444.6,362.8,433.4,370.7,417.1L370.7,417.1z
		 M382.3,476.2L382.3,476.2L382.3,476.2L382.3,476.2z M382.3,476.2L372,497.9c-0.2-2.8,0.3-5.5,1.7-8.2
		C375,486.9,377.8,482.4,382.3,476.2L382.3,476.2z M372,497.9c0.3,2.5,0.4,3.9,0.3,4.3c0,0.8-0.3,1.6-0.7,2.4
		c-0.2,0.5-0.6,1-0.9,1.6c-2.6,3.6-4.4,6.2-5.4,7.9c-1.8,2.9-3.9,6.8-6.4,11.4L372,497.9L372,497.9z"/>
</g>
<g>
	<path class="st9" d="M396,289.9l-9.2,10.9l-9-7.7c1.2,1,2.7,1.7,4.5,2.2c1.9,0.5,3.6,0.6,5.2,0.3c1.2-0.2,2.5-0.7,3.8-1.6
		C392.3,293.2,393.9,291.9,396,289.9"/>
</g>
<g>
	<path class="st1" d="M132.5,433.9l93.7,0l93.7,0c0,39.5,0,78.9,0,118.4c-62.5,0-125,0-187.5,0C132.5,512.8,132.5,473.3,132.5,433.9
		"/>
</g>
<g>
	<path d="M184.6,471.1c1.5-1.5,3.4-2.3,5.8-2.3c3.1,0,5.4,1,6.8,3.1c0.8,1.2,1.2,2.3,1.3,3.5h-3.9c-0.2-0.9-0.6-1.6-1-2
		c-0.7-0.8-1.7-1.2-3.1-1.2c-1.4,0-2.5,0.6-3.3,1.7c-0.8,1.1-1.2,2.8-1.2,4.9c0,2.1,0.4,3.7,1.3,4.7c0.9,1,1.9,1.6,3.2,1.6
		c1.3,0,2.4-0.4,3.1-1.3c0.4-0.5,0.7-1.2,1-2.2h3.9c-0.3,2-1.2,3.7-2.6,5s-3.1,1.9-5.3,1.9c-2.7,0-4.8-0.9-6.3-2.6
		c-1.5-1.7-2.3-4.1-2.3-7.1C182,475.4,182.9,472.9,184.6,471.1z"/>
	<path d="M216.1,486.2c-1.4,1.5-3.5,2.2-6.1,2.2s-4.7-0.7-6.1-2.2c-1.9-1.8-2.8-4.4-2.8-7.7c0-3.4,0.9-6,2.8-7.7
		c1.4-1.5,3.5-2.2,6.1-2.2s4.7,0.7,6.1,2.2c1.9,1.7,2.8,4.3,2.8,7.7C218.9,481.8,218,484.4,216.1,486.2z M213.6,483.4
		c0.9-1.1,1.4-2.8,1.4-4.9c0-2.1-0.5-3.7-1.4-4.9c-0.9-1.1-2.1-1.7-3.7-1.7c-1.6,0-2.8,0.6-3.7,1.7c-0.9,1.1-1.4,2.8-1.4,4.9
		s0.5,3.7,1.4,4.9c0.9,1.1,2.2,1.7,3.7,1.7C211.5,485.1,212.7,484.5,213.6,483.4z"/>
	<path d="M221.9,469.1h3.9v15.4h9.4v3.4h-13.3V469.1z"/>
	<path d="M237.8,469.1h3.9v15.4h9.4v3.4h-13.3V469.1z"/>
	<path d="M264.4,469.1h4.4l-6.3,11.7v7h-3.9v-7l-6.5-11.7h4.6l3.9,8.2L264.4,469.1z"/>
	<path d="M163.9,513.3c0.1,0.9,0.4,1.5,0.7,1.9c0.6,0.8,1.8,1.2,3.3,1.2c0.9,0,1.7-0.1,2.3-0.3c1.1-0.4,1.7-1.1,1.7-2.2
		c0-0.6-0.3-1.1-0.8-1.4c-0.5-0.3-1.4-0.6-2.6-0.9l-2-0.4c-2-0.4-3.4-0.9-4.1-1.4c-1.3-0.9-1.9-2.2-1.9-4.1c0-1.7,0.6-3.1,1.9-4.2
		c1.2-1.1,3.1-1.7,5.4-1.7c2,0,3.7,0.5,5.1,1.6c1.4,1,2.2,2.6,2.2,4.6h-3.8c-0.1-1.1-0.6-1.9-1.5-2.4c-0.6-0.3-1.4-0.5-2.3-0.5
		c-1,0-1.9,0.2-2.5,0.6c-0.6,0.4-0.9,1-0.9,1.7c0,0.7,0.3,1.2,0.9,1.5c0.4,0.2,1.2,0.5,2.5,0.8l3.3,0.8c1.4,0.3,2.5,0.8,3.2,1.4
		c1.1,0.9,1.7,2.2,1.7,3.8c0,1.7-0.7,3.1-2,4.3c-1.3,1.1-3.2,1.7-5.6,1.7c-2.5,0-4.4-0.6-5.8-1.7c-1.4-1.1-2.1-2.6-2.1-4.6H163.9z"
		/>
	<path d="M192.2,503.7h-9.7v4h8.9v3.3h-8.9v4.8h10.2v3.4h-14v-18.7h13.5V503.7z"/>
	<path d="M207.9,500.9c0.7,0.3,1.3,0.7,1.8,1.3c0.4,0.5,0.7,1,0.9,1.6c0.2,0.6,0.3,1.2,0.3,2c0,0.9-0.2,1.8-0.7,2.6
		c-0.4,0.9-1.2,1.5-2.2,1.8c0.9,0.3,1.5,0.8,1.8,1.5c0.4,0.6,0.5,1.6,0.5,2.9v1.3c0,0.9,0,1.4,0.1,1.7c0.1,0.5,0.3,0.8,0.7,1.1v0.5
		h-4.3c-0.1-0.4-0.2-0.8-0.3-1c-0.1-0.5-0.2-1.1-0.2-1.6l0-1.7c0-1.2-0.2-2-0.6-2.4s-1.1-0.6-2.2-0.6h-3.8v7.4H196v-18.7h9
		C206.2,500.4,207.2,500.6,207.9,500.9z M199.8,503.6v5h4.2c0.8,0,1.5-0.1,1.9-0.3c0.7-0.4,1.1-1.1,1.1-2.1c0-1.1-0.4-1.9-1.1-2.3
		c-0.4-0.2-1-0.3-1.8-0.3H199.8z"/>
	<path d="M225.6,500.4h4.1l-6.4,18.7h-3.7l-6.3-18.7h4.2l4.1,14.2L225.6,500.4z"/>
	<path d="M235.6,519.1h-3.9v-18.7h3.9V519.1z"/>
	<path d="M241.1,502.3c1.5-1.5,3.4-2.3,5.8-2.3c3.1,0,5.4,1,6.8,3.1c0.8,1.2,1.2,2.3,1.3,3.5h-3.9c-0.2-0.9-0.6-1.6-1-2
		c-0.7-0.8-1.7-1.2-3.1-1.2c-1.4,0-2.5,0.6-3.3,1.7c-0.8,1.1-1.2,2.8-1.2,4.9c0,2.1,0.4,3.7,1.3,4.7c0.9,1,1.9,1.6,3.2,1.6
		c1.3,0,2.4-0.4,3.1-1.3c0.4-0.5,0.7-1.2,1-2.2h3.9c-0.3,2-1.2,3.7-2.6,5s-3.1,1.9-5.3,1.9c-2.7,0-4.8-0.9-6.3-2.6
		c-1.5-1.7-2.3-4.1-2.3-7.1C238.5,506.6,239.3,504.1,241.1,502.3z"/>
	<path d="M271.8,503.7H262v4h8.9v3.3H262v4.8h10.2v3.4h-14v-18.7h13.5V503.7z"/>
	<path d="M278.3,513.3c0.1,0.9,0.4,1.5,0.7,1.9c0.6,0.8,1.8,1.2,3.3,1.2c0.9,0,1.7-0.1,2.3-0.3c1.1-0.4,1.7-1.1,1.7-2.2
		c0-0.6-0.3-1.1-0.8-1.4c-0.5-0.3-1.4-0.6-2.6-0.9l-2-0.4c-2-0.4-3.4-0.9-4.1-1.4c-1.3-0.9-1.9-2.2-1.9-4.1c0-1.7,0.6-3.1,1.9-4.2
		c1.2-1.1,3.1-1.7,5.4-1.7c2,0,3.7,0.5,5.1,1.6c1.4,1,2.2,2.6,2.2,4.6h-3.8c-0.1-1.1-0.6-1.9-1.5-2.4c-0.6-0.3-1.4-0.5-2.3-0.5
		c-1,0-1.9,0.2-2.5,0.6c-0.6,0.4-0.9,1-0.9,1.7c0,0.7,0.3,1.2,0.9,1.5c0.4,0.2,1.2,0.5,2.5,0.8l3.3,0.8c1.4,0.3,2.5,0.8,3.2,1.4
		c1.1,0.9,1.7,2.2,1.7,3.8c0,1.7-0.7,3.1-2,4.3c-1.3,1.1-3.2,1.7-5.6,1.7c-2.5,0-4.4-0.6-5.8-1.7c-1.4-1.1-2.1-2.6-2.1-4.6H278.3z"
		/>
</g>
</svg>
