<?xml version="1.0" encoding="utf-8"?>
<!-- Generator: Adobe Illustrator 25.4.1, SVG Export Plug-In . SVG Version: 6.00 Build 0)  -->
<svg version="1.1" id="Layer_1" xmlns:serif="http://www.serif.com/"
	 xmlns="http://www.w3.org/2000/svg" xmlns:xlink="http://www.w3.org/1999/xlink" x="0px" y="0px" viewBox="0 0 612 792"
	 style="enable-background:new 0 0 612 792;" xml:space="preserve">
<style type="text/css">
	.st0{fill-rule:evenodd;clip-rule:evenodd;fill:#F9D121;}
	.st1{fill-rule:evenodd;clip-rule:evenodd;fill:#F1AD9D;}
	.st2{fill-rule:evenodd;clip-rule:evenodd;fill:#1B79D9;}
	.st3{fill-rule:evenodd;clip-rule:evenodd;fill:#F3968C;}
	.st4{fill-rule:evenodd;clip-rule:evenodd;fill:#ED4042;}
	.st5{fill-rule:evenodd;clip-rule:evenodd;fill:#F6AE9E;}
	.st6{fill-rule:evenodd;clip-rule:evenodd;fill:#012241;}
	.st7{fill-rule:evenodd;clip-rule:evenodd;fill:#D2968A;}
	.st8{fill-rule:evenodd;clip-rule:evenodd;fill:#8D1139;}
	.st9{fill-rule:evenodd;clip-rule:evenodd;fill:#FCFCFE;}
	.st10{fill-rule:evenodd;clip-rule:evenodd;fill:#ED1C5F;fill-opacity:0.71;}
	.st11{fill-rule:evenodd;clip-rule:evenodd;fill:#F78F8A;}
	.st12{fill-rule:evenodd;clip-rule:evenodd;fill:#1564B1;}
	.st13{fill-rule:evenodd;clip-rule:evenodd;fill:#3C3D3F;}
	.st14{fill-rule:evenodd;clip-rule:evenodd;fill:#5B5C60;}
	.st15{fill-rule:evenodd;clip-rule:evenodd;fill:#505362;}
	.st16{fill-rule:evenodd;clip-rule:evenodd;fill:#B6612B;}
</style>
<g>
	<g>
		<path class="st0" d="M169.9,568.8c-41.5-38.7-67.5-93.8-67.5-154.9c0-116.9,94.9-211.7,211.7-211.7
			c116.9,0,211.7,94.9,211.7,211.7c0,61.1-26,116.3-67.5,154.9H169.9L169.9,568.8z"/>
		<path class="st1" d="M349,568.8H241.9c-5.3,0-10.4-2.1-14.1-5.8c-3.7-3.7-5.8-8.8-5.8-14.1v-57.4h40v37.3h41.1
			c5.6-7,14.2-11.6,23.9-11.6c16.8,0,30.6,13.7,30.5,30.5C357.4,559.7,349,568.8,349,568.8L349,568.8z"/>
		<path class="st2" d="M263.8,481.8c0-37.4-30.3-67.7-67.7-67.7h0c-37.4,0-67.7,30.3-67.7,67.7c0,41.6,0,87,0,87h135.5L263.8,481.8
			L263.8,481.8z"/>
		<path class="st3" d="M224.7,396.5c0-5.9-2.4-11.7-6.6-15.9c-4.2-4.2-9.9-6.6-15.9-6.6c0,0,0,0,0,0c-5.9,0-11.7,2.4-15.9,6.6
			c-4.2,4.2-6.6,9.9-6.6,15.9c0,8.8,0,18.9,0,27.7c0,5.9,2.4,11.7,6.6,15.9c4.2,4.2,9.9,6.6,15.9,6.6c0,0,0,0,0,0
			c5.9,0,11.7-2.4,15.9-6.6c4.2-4.2,6.6-9.9,6.6-15.9C224.7,415.4,224.7,405.3,224.7,396.5L224.7,396.5z"/>
		<path class="st4" d="M162.8,227.2c4.2-3.8,9.8-6.1,15.9-6.1c13,0,23.6,10.6,23.6,23.6c0,2.9-0.5,5.6-1.4,8.1h42.3
			c17.9,0,32.5,14.5,32.5,32.5c0,0.1,0,0.3,0,0.4c0,17.9-14.5,32.5-32.5,32.5c-24.3,0-57.4,0-81.7,0c-17.9,0-32.5-14.5-32.5-32.5
			c0-0.1,0-0.3,0-0.4c0-8.3,3.1-15.9,8.3-21.6c-0.6-0.5-1.3-1-1.8-1.6c-7.6-7.6-7.6-19.9,0-27.4l3.8,3.8c0-13,10.6-23.6,23.6-23.6
			V227.2L162.8,227.2z"/>
		<path class="st3" d="M283.8,325.1c0-13.6-11-24.6-24.6-24.6H145.4c-13.6,0-24.6,11-24.6,24.6c0,13.6,11,24.6,24.6,24.6h113.8
			C272.8,349.8,283.8,338.7,283.8,325.1z"/>
		<path class="st5" d="M260.9,297c0-32.3-26.3-58.6-58.6-58.6c-32.3,0-58.6,26.3-58.6,58.6v58.5c0,32.3,26.3,58.6,58.6,58.6
			c32.3,0,58.6-26.3,58.6-58.6V297z"/>
		<g>
			<path class="st4" d="M173.6,287.9c0.8,0,1.5-0.4,1.9-1c0.5-0.6,0.6-1.4,0.4-2.1c-0.5-1.7-1.4-3.2-2.7-4.5
				c-4.2-4.2-10.9-4.2-15.1,0c-1.3,1.3-2.2,2.8-2.7,4.5c-0.2,0.7-0.1,1.5,0.4,2.1c0.5,0.6,1.2,1,1.9,1c0.2,0,0.4,0,0.6,0
				c1,0,2-0.7,2.3-1.7c0.3-0.8,0.7-1.5,1.3-2.1c2.1-2.1,5.5-2.1,7.5,0c0.6,0.6,1,1.3,1.3,2.1c0.3,1,1.2,1.7,2.3,1.7
				C173.2,287.9,173.4,287.9,173.6,287.9z"/>
			<path class="st4" d="M247.2,287.9c0.8,0,1.5-0.4,1.9-1c0.5-0.6,0.6-1.4,0.4-2.1c-0.5-1.7-1.4-3.2-2.7-4.5
				c-4.2-4.2-10.9-4.2-15.1,0c-1.3,1.3-2.2,2.8-2.7,4.5c-0.2,0.7-0.1,1.5,0.4,2.1c0.5,0.6,1.2,1,1.9,1c0.2,0,0.4,0,0.6,0
				c1,0,2-0.7,2.3-1.7c0.3-0.8,0.7-1.5,1.3-2.1c2.1-2.1,5.5-2.1,7.5,0c0.6,0.6,1,1.3,1.3,2.1c0.3,1,1.2,1.7,2.3,1.7
				C246.8,287.9,247,287.9,247.2,287.9z"/>
		</g>
		<g>
			<path class="st6" d="M175.4,308.6h-20.3c0-5.6,4.6-10.2,10.2-10.2C170.9,298.4,175.4,303,175.4,308.6z"/>
			<path class="st6" d="M249.5,308.6h-20.3c0-5.6,4.6-10.2,10.2-10.2S249.5,303,249.5,308.6L249.5,308.6z"/>
		</g>
		<path class="st7" d="M260.9,326.2v29.3c0,32.3-26.3,58.6-58.6,58.6c-32.3,0-58.6-26.3-58.6-58.6v-29.3H260.9z"/>
		<g>
			<path class="st8" d="M169.3,341.6c-2.2,0-4.3,1-5.7,2.7c-1.4,1.7-1.9,4-1.5,6.2c4.1,18.4,20.5,32.2,40.2,32.2
				c19.7,0,36.1-13.8,40.2-32.2c0.5-2.2-0.1-4.5-1.5-6.2c-1.4-1.7-3.5-2.7-5.7-2.7c-12,0-33,0-33,0L169.3,341.6L169.3,341.6z"/>
			<path class="st9" d="M227.5,341.6H177v7.3c0,2.4,1.9,4.3,4.3,4.3c9.5,0,32.2,0,41.8,0c2.4,0,4.3-1.9,4.3-4.3
				C227.5,345.6,227.5,341.6,227.5,341.6L227.5,341.6z"/>
			<path class="st10" d="M174,371.5c1.1-5.3,5.8-9.3,11.4-9.3h33.7c5.6,0,10.4,4,11.4,9.3c-7.4,7-17.3,11.2-28.3,11.2
				C191.3,382.8,181.4,378.5,174,371.5L174,371.5z"/>
		</g>
		<path class="st4" d="M287.2,215.2h-83.8c-6.6,0-12.9,2.6-17.5,7.2c-4.6,4.6-7.2,10.9-7.2,17.5v3.5c0,6.6,2.6,12.9,7.2,17.5
			c4.6,4.6,10.9,7.2,17.5,7.2h57.3c14.6,0,26.5-11.9,26.5-26.5V215.2z"/>
		<circle class="st11" cx="202.3" cy="318.4" r="15.1"/>
		<path class="st4" d="M260.9,286.6H271v32.7c0,3.9-3.1,7-7,7c-1.7,0-3.1,0-3.1,0V286.6z M143.7,286.6h-10.1v32.7c0,3.9,3.1,7,7,7
			c1.7,0,3.1,0,3.1,0V286.6z"/>
		<path class="st12" d="M176.6,477.5c0-1.2-1-2.1-2.1-2.1c-7.6,0-33,0-40.6,0c-1.2,0-2.1,1-2.1,2.1c0,3.1,0,8.7,0,11.8
			c0,1.2,1,2.1,2.1,2.1c7.6,0,33,0,40.6,0c1.2,0,2.1-1,2.1-2.1C176.6,486.2,176.6,480.6,176.6,477.5L176.6,477.5z"/>
		<path class="st3" d="M269.9,568.8c0,0-91.5,0-115.6,0c-5.3,0-10.4-2.1-14.1-5.8c-3.7-3.7-5.8-8.8-5.8-14.1v-57.4h40v37.3h41.1
			c5.6-7,14.2-11.6,23.9-11.6c16.8,0,30.6,13.7,30.5,30.5C269.8,559.7,269.9,568.8,269.9,568.8L269.9,568.8z"/>
		<g>
			<path class="st13" d="M312.6,365.7H279c-2.1,0-4.1,0.8-5.6,2.3c-1.5,1.5-2.3,3.5-2.3,5.6c0,25,0,101.8,0,126.8
				c0,2.1,0.8,4.1,2.3,5.6c1.5,1.5,3.5,2.3,5.6,2.3c12.1,0,33.6,0,33.6,0V365.7z"/>
			<path class="st14" d="M464.1,373.7c0-4.4-3.6-8-8-8c-28.7,0-126.4,0-155.1,0c-4.4,0-8,3.6-8,8c0,25,0,101.8,0,126.8
				c0,4.4,3.6,8,8,8c28.7,0,126.4,0,155.1,0c4.4,0,8-3.6,8-8C464.1,475.5,464.1,398.7,464.1,373.7z"/>
			<rect x="348.2" y="446.7" class="st13" width="61.2" height="61.8"/>
			<path class="st13" d="M306.1,547.7h-35.4c-3.4,0-6.1,2.7-6.1,6.1c0,6.2,0,15,0,15h41.6V547.7z"/>
			<path class="st14" d="M470.5,553.8c0-3.4-2.7-6.1-6.1-6.1c-28,0-143.7,0-171.7,0c-3.4,0-6.1,2.7-6.1,6.1c0,6.2,0,15,0,15h184
				V553.8z"/>
			<path class="st13" d="M345.6,547.7h35.4c3.4,0,6.1,2.7,6.1,6.1c0,6.2,0,15,0,15h-41.6V547.7z"/>
			<path class="st15" d="M409.4,446.7h-61.2l11.5,122.1h61.2L409.4,446.7L409.4,446.7z"/>
		</g>
		<path class="st16" d="M517,579.3c0-5.8-4.7-10.5-10.5-10.5H96.7c-5.8,0-10.5,4.7-10.5,10.5c0,5.8,4.7,10.5,10.5,10.5h409.8
			C512.2,589.9,517,585.1,517,579.3z"/>
		<path class="st13" d="M352.8,446.7h-4.6l11.5,122.1h4.6L352.8,446.7L352.8,446.7z"/>
		<path class="st12" d="M179.8,416v8.2c0,5.9,2.4,11.7,6.6,15.9c4.2,4.2,9.9,6.6,15.9,6.6c0,0,0,0,0,0c5.9,0,11.7-2.4,15.9-6.6
			c4.2-4.2,6.6-9.9,6.6-15.9v-3.8c3.9,1.8,7.6,4,11,6.5c-0.6,7.9-4.1,15.4-9.7,21c-6.3,6.3-14.8,9.8-23.7,9.8c0,0,0,0,0,0
			c-8.9,0-17.4-3.5-23.7-9.8c-6.3-6.3-9.8-14.8-9.8-23.7v-4.4C172.3,418.3,176,417,179.8,416L179.8,416z"/>
	</g>
</g>
</svg>
